<?xml version="1.0" encoding="UTF-8"?>
<!DOCTYPE svg PUBLIC "-//W3C//DTD SVG 1.1//EN" "http://www.w3.org/Graphics/SVG/1.1/DTD/svg11.dtd">
<svg version="1.1" xmlns="http://www.w3.org/2000/svg" xmlns:xlink="http://www.w3.org/1999/xlink" x="0" y="0" width="116.22" height="116.22" viewBox="0, 0, 116.22, 116.22">
  <g id="Background">
    <rect x="0" y="0" width="116.22" height="116.22" fill="#FFFFFF"/>
  </g>
  <g id="Layer_1">
    <path d="M11.339,11.339 L14.173,11.339 L14.173,14.173 L11.339,14.173 z M14.173,11.339 L17.008,11.339 L17.008,14.173 L14.173,14.173 z M17.008,11.339 L19.843,11.339 L19.843,14.173 L17.008,14.173 z M19.843,11.339 L22.677,11.339 L22.677,14.173 L19.843,14.173 z M22.677,11.339 L25.512,11.339 L25.512,14.173 L22.677,14.173 z M25.512,11.339 L28.346,11.339 L28.346,14.173 L25.512,14.173 z M28.346,11.339 L31.181,11.339 L31.181,14.173 L28.346,14.173 z M42.52,11.339 L45.354,11.339 L45.354,14.173 L42.52,14.173 z M45.354,11.339 L48.189,11.339 L48.189,14.173 L45.354,14.173 z M48.189,11.339 L51.024,11.339 L51.024,14.173 L48.189,14.173 z M51.024,11.339 L53.858,11.339 L53.858,14.173 L51.024,14.173 z M56.693,11.339 L59.528,11.339 L59.528,14.173 L56.693,14.173 z M62.362,11.339 L65.197,11.339 L65.197,14.173 L62.362,14.173 z M65.197,11.339 L68.032,11.339 L68.032,14.173 L65.197,14.173 z M68.032,11.339 L70.866,11.339 L70.866,14.173 L68.032,14.173 z M70.866,11.339 L73.701,11.339 L73.701,14.173 L70.866,14.173 z M73.701,11.339 L76.535,11.339 L76.535,14.173 L73.701,14.173 z M79.37,11.339 L82.205,11.339 L82.205,14.173 L79.37,14.173 z M85.039,11.339 L87.874,11.339 L87.874,14.173 L85.039,14.173 z M87.874,11.339 L90.709,11.339 L90.709,14.173 L87.874,14.173 z M90.709,11.339 L93.543,11.339 L93.543,14.173 L90.709,14.173 z M93.543,11.339 L96.378,11.339 L96.378,14.173 L93.543,14.173 z M96.378,11.339 L99.213,11.339 L99.213,14.173 L96.378,14.173 z M99.213,11.339 L102.047,11.339 L102.047,14.173 L99.213,14.173 z M102.047,11.339 L104.882,11.339 L104.882,14.173 L102.047,14.173 z M11.339,14.173 L14.173,14.173 L14.173,17.008 L11.339,17.008 z M28.346,14.173 L31.181,14.173 L31.181,17.008 L28.346,17.008 z M39.685,14.173 L42.52,14.173 L42.52,17.008 L39.685,17.008 z M42.52,14.173 L45.354,14.173 L45.354,17.008 L42.52,17.008 z M45.354,14.173 L48.189,14.173 L48.189,17.008 L45.354,17.008 z M59.528,14.173 L62.362,14.173 L62.362,17.008 L59.528,17.008 z M62.362,14.173 L65.197,14.173 L65.197,17.008 L62.362,17.008 z M68.032,14.173 L70.866,14.173 L70.866,17.008 L68.032,17.008 z M70.866,14.173 L73.701,14.173 L73.701,17.008 L70.866,17.008 z M79.37,14.173 L82.205,14.173 L82.205,17.008 L79.37,17.008 z M85.039,14.173 L87.874,14.173 L87.874,17.008 L85.039,17.008 z M102.047,14.173 L104.882,14.173 L104.882,17.008 L102.047,17.008 z M11.339,17.008 L14.173,17.008 L14.173,19.843 L11.339,19.843 z M17.008,17.008 L19.843,17.008 L19.843,19.843 L17.008,19.843 z M19.843,17.008 L22.677,17.008 L22.677,19.843 L19.843,19.843 z M22.677,17.008 L25.512,17.008 L25.512,19.843 L22.677,19.843 z M28.346,17.008 L31.181,17.008 L31.181,19.843 L28.346,19.843 z M34.016,17.008 L36.85,17.008 L36.85,19.843 L34.016,19.843 z M39.685,17.008 L42.52,17.008 L42.52,19.843 L39.685,19.843 z M42.52,17.008 L45.354,17.008 L45.354,19.843 L42.52,19.843 z M48.189,17.008 L51.024,17.008 L51.024,19.843 L48.189,19.843 z M51.024,17.008 L53.858,17.008 L53.858,19.843 L51.024,19.843 z M53.858,17.008 L56.693,17.008 L56.693,19.843 L53.858,19.843 z M56.693,17.008 L59.528,17.008 L59.528,19.843 L56.693,19.843 z M65.197,17.008 L68.032,17.008 L68.032,19.843 L65.197,19.843 z M68.032,17.008 L70.866,17.008 L70.866,19.843 L68.032,19.843 z M70.866,17.008 L73.701,17.008 L73.701,19.843 L70.866,19.843 z M76.535,17.008 L79.37,17.008 L79.37,19.843 L76.535,19.843 z M79.37,17.008 L82.205,17.008 L82.205,19.843 L79.37,19.843 z M85.039,17.008 L87.874,17.008 L87.874,19.843 L85.039,19.843 z M90.709,17.008 L93.543,17.008 L93.543,19.843 L90.709,19.843 z M93.543,17.008 L96.378,17.008 L96.378,19.843 L93.543,19.843 z M96.378,17.008 L99.213,17.008 L99.213,19.843 L96.378,19.843 z M102.047,17.008 L104.882,17.008 L104.882,19.843 L102.047,19.843 z M11.339,19.843 L14.173,19.843 L14.173,22.677 L11.339,22.677 z M17.008,19.843 L19.843,19.843 L19.843,22.677 L17.008,22.677 z M19.843,19.843 L22.677,19.843 L22.677,22.677 L19.843,22.677 z M22.677,19.843 L25.512,19.843 L25.512,22.677 L22.677,22.677 z M28.346,19.843 L31.181,19.843 L31.181,22.677 L28.346,22.677 z M34.016,19.843 L36.85,19.843 L36.85,22.677 L34.016,22.677 z M45.354,19.843 L48.189,19.843 L48.189,22.677 L45.354,22.677 z M51.024,19.843 L53.858,19.843 L53.858,22.677 L51.024,22.677 z M53.858,19.843 L56.693,19.843 L56.693,22.677 L53.858,22.677 z M59.528,19.843 L62.362,19.843 L62.362,22.677 L59.528,22.677 z M65.197,19.843 L68.032,19.843 L68.032,22.677 L65.197,22.677 z M68.032,19.843 L70.866,19.843 L70.866,22.677 L68.032,22.677 z M70.866,19.843 L73.701,19.843 L73.701,22.677 L70.866,22.677 z M73.701,19.843 L76.535,19.843 L76.535,22.677 L73.701,22.677 z M76.535,19.843 L79.37,19.843 L79.37,22.677 L76.535,22.677 z M85.039,19.843 L87.874,19.843 L87.874,22.677 L85.039,22.677 z M90.709,19.843 L93.543,19.843 L93.543,22.677 L90.709,22.677 z M93.543,19.843 L96.378,19.843 L96.378,22.677 L93.543,22.677 z M96.378,19.843 L99.213,19.843 L99.213,22.677 L96.378,22.677 z M102.047,19.843 L104.882,19.843 L104.882,22.677 L102.047,22.677 z M11.339,22.677 L14.173,22.677 L14.173,25.512 L11.339,25.512 z M17.008,22.677 L19.843,22.677 L19.843,25.512 L17.008,25.512 z M19.843,22.677 L22.677,22.677 L22.677,25.512 L19.843,25.512 z M22.677,22.677 L25.512,22.677 L25.512,25.512 L22.677,25.512 z M28.346,22.677 L31.181,22.677 L31.181,25.512 L28.346,25.512 z M39.685,22.677 L42.52,22.677 L42.52,25.512 L39.685,25.512 z M45.354,22.677 L48.189,22.677 L48.189,25.512 L45.354,25.512 z M56.693,22.677 L59.528,22.677 L59.528,25.512 L56.693,25.512 z M65.197,22.677 L68.032,22.677 L68.032,25.512 L65.197,25.512 z M68.032,22.677 L70.866,22.677 L70.866,25.512 L68.032,25.512 z M76.535,22.677 L79.37,22.677 L79.37,25.512 L76.535,25.512 z M79.37,22.677 L82.205,22.677 L82.205,25.512 L79.37,25.512 z M85.039,22.677 L87.874,22.677 L87.874,25.512 L85.039,25.512 z M90.709,22.677 L93.543,22.677 L93.543,25.512 L90.709,25.512 z M93.543,22.677 L96.378,22.677 L96.378,25.512 L93.543,25.512 z M96.378,22.677 L99.213,22.677 L99.213,25.512 L96.378,25.512 z M102.047,22.677 L104.882,22.677 L104.882,25.512 L102.047,25.512 z M11.339,25.512 L14.173,25.512 L14.173,28.346 L11.339,28.346 z M28.346,25.512 L31.181,25.512 L31.181,28.346 L28.346,28.346 z M39.685,25.512 L42.52,25.512 L42.52,28.346 L39.685,28.346 z M42.52,25.512 L45.354,25.512 L45.354,28.346 L42.52,28.346 z M62.362,25.512 L65.197,25.512 L65.197,28.346 L62.362,28.346 z M70.866,25.512 L73.701,25.512 L73.701,28.346 L70.866,28.346 z M76.535,25.512 L79.37,25.512 L79.37,28.346 L76.535,28.346 z M85.039,25.512 L87.874,25.512 L87.874,28.346 L85.039,28.346 z M102.047,25.512 L104.882,25.512 L104.882,28.346 L102.047,28.346 z M11.339,28.346 L14.173,28.346 L14.173,31.181 L11.339,31.181 z M14.173,28.346 L17.008,28.346 L17.008,31.181 L14.173,31.181 z M17.008,28.346 L19.843,28.346 L19.843,31.181 L17.008,31.181 z M19.843,28.346 L22.677,28.346 L22.677,31.181 L19.843,31.181 z M22.677,28.346 L25.512,28.346 L25.512,31.181 L22.677,31.181 z M25.512,28.346 L28.346,28.346 L28.346,31.181 L25.512,31.181 z M28.346,28.346 L31.181,28.346 L31.181,31.181 L28.346,31.181 z M34.016,28.346 L36.85,28.346 L36.85,31.181 L34.016,31.181 z M39.685,28.346 L42.52,28.346 L42.52,31.181 L39.685,31.181 z M45.354,28.346 L48.189,28.346 L48.189,31.181 L45.354,31.181 z M51.024,28.346 L53.858,28.346 L53.858,31.181 L51.024,31.181 z M56.693,28.346 L59.528,28.346 L59.528,31.181 L56.693,31.181 z M62.362,28.346 L65.197,28.346 L65.197,31.181 L62.362,31.181 z M68.032,28.346 L70.866,28.346 L70.866,31.181 L68.032,31.181 z M73.701,28.346 L76.535,28.346 L76.535,31.181 L73.701,31.181 z M79.37,28.346 L82.205,28.346 L82.205,31.181 L79.37,31.181 z M85.039,28.346 L87.874,28.346 L87.874,31.181 L85.039,31.181 z M87.874,28.346 L90.709,28.346 L90.709,31.181 L87.874,31.181 z M90.709,28.346 L93.543,28.346 L93.543,31.181 L90.709,31.181 z M93.543,28.346 L96.378,28.346 L96.378,31.181 L93.543,31.181 z M96.378,28.346 L99.213,28.346 L99.213,31.181 L96.378,31.181 z M99.213,28.346 L102.047,28.346 L102.047,31.181 L99.213,31.181 z M102.047,28.346 L104.882,28.346 L104.882,31.181 L102.047,31.181 z M45.354,31.181 L48.189,31.181 L48.189,34.016 L45.354,34.016 z M56.693,31.181 L59.528,31.181 L59.528,34.016 L56.693,34.016 z M59.528,31.181 L62.362,31.181 L62.362,34.016 L59.528,34.016 z M62.362,31.181 L65.197,31.181 L65.197,34.016 L62.362,34.016 z M68.032,31.181 L70.866,31.181 L70.866,34.016 L68.032,34.016 z M79.37,31.181 L82.205,31.181 L82.205,34.016 L79.37,34.016 z M19.843,34.016 L22.677,34.016 L22.677,36.85 L19.843,36.85 z M22.677,34.016 L25.512,34.016 L25.512,36.85 L22.677,36.85 z M28.346,34.016 L31.181,34.016 L31.181,36.85 L28.346,36.85 z M31.181,34.016 L34.016,34.016 L34.016,36.85 L31.181,36.85 z M36.85,34.016 L39.685,34.016 L39.685,36.85 L36.85,36.85 z M45.354,34.016 L48.189,34.016 L48.189,36.85 L45.354,36.85 z M48.189,34.016 L51.024,34.016 L51.024,36.85 L48.189,36.85 z M51.024,34.016 L53.858,34.016 L53.858,36.85 L51.024,36.85 z M59.528,34.016 L62.362,34.016 L62.362,36.85 L59.528,36.85 z M62.362,34.016 L65.197,34.016 L65.197,36.85 L62.362,36.85 z M65.197,34.016 L68.032,34.016 L68.032,36.85 L65.197,36.85 z M68.032,34.016 L70.866,34.016 L70.866,36.85 L68.032,36.85 z M79.37,34.016 L82.205,34.016 L82.205,36.85 L79.37,36.85 z M93.543,34.016 L96.378,34.016 L96.378,36.85 L93.543,36.85 z M96.378,34.016 L99.213,34.016 L99.213,36.85 L96.378,36.85 z M19.843,36.85 L22.677,36.85 L22.677,39.685 L19.843,39.685 z M25.512,36.85 L28.346,36.85 L28.346,39.685 L25.512,39.685 z M34.016,36.85 L36.85,36.85 L36.85,39.685 L34.016,39.685 z M36.85,36.85 L39.685,36.85 L39.685,39.685 L36.85,39.685 z M42.52,36.85 L45.354,36.85 L45.354,39.685 L42.52,39.685 z M68.032,36.85 L70.866,36.85 L70.866,39.685 L68.032,39.685 z M70.866,36.85 L73.701,36.85 L73.701,39.685 L70.866,39.685 z M73.701,36.85 L76.535,36.85 L76.535,39.685 L73.701,39.685 z M76.535,36.85 L79.37,36.85 L79.37,39.685 L76.535,39.685 z M79.37,36.85 L82.205,36.85 L82.205,39.685 L79.37,39.685 z M82.205,36.85 L85.039,36.85 L85.039,39.685 L82.205,39.685 z M87.874,36.85 L90.709,36.85 L90.709,39.685 L87.874,39.685 z M90.709,36.85 L93.543,36.85 L93.543,39.685 L90.709,39.685 z M96.378,36.85 L99.213,36.85 L99.213,39.685 L96.378,39.685 z M99.213,36.85 L102.047,36.85 L102.047,39.685 L99.213,39.685 z M14.173,39.685 L17.008,39.685 L17.008,42.52 L14.173,42.52 z M17.008,39.685 L19.843,39.685 L19.843,42.52 L17.008,42.52 z M22.677,39.685 L25.512,39.685 L25.512,42.52 L22.677,42.52 z M28.346,39.685 L31.181,39.685 L31.181,42.52 L28.346,42.52 z M31.181,39.685 L34.016,39.685 L34.016,42.52 L31.181,42.52 z M34.016,39.685 L36.85,39.685 L36.85,42.52 L34.016,42.52 z M36.85,39.685 L39.685,39.685 L39.685,42.52 L36.85,42.52 z M39.685,39.685 L42.52,39.685 L42.52,42.52 L39.685,42.52 z M42.52,39.685 L45.354,39.685 L45.354,42.52 L42.52,42.52 z M48.189,39.685 L51.024,39.685 L51.024,42.52 L48.189,42.52 z M51.024,39.685 L53.858,39.685 L53.858,42.52 L51.024,42.52 z M53.858,39.685 L56.693,39.685 L56.693,42.52 L53.858,42.52 z M62.362,39.685 L65.197,39.685 L65.197,42.52 L62.362,42.52 z M65.197,39.685 L68.032,39.685 L68.032,42.52 L65.197,42.52 z M68.032,39.685 L70.866,39.685 L70.866,42.52 L68.032,42.52 z M73.701,39.685 L76.535,39.685 L76.535,42.52 L73.701,42.52 z M76.535,39.685 L79.37,39.685 L79.37,42.52 L76.535,42.52 z M79.37,39.685 L82.205,39.685 L82.205,42.52 L79.37,42.52 z M82.205,39.685 L85.039,39.685 L85.039,42.52 L82.205,42.52 z M87.874,39.685 L90.709,39.685 L90.709,42.52 L87.874,42.52 z M93.543,39.685 L96.378,39.685 L96.378,42.52 L93.543,42.52 z M99.213,39.685 L102.047,39.685 L102.047,42.52 L99.213,42.52 z M102.047,39.685 L104.882,39.685 L104.882,42.52 L102.047,42.52 z M14.173,42.52 L17.008,42.52 L17.008,45.354 L14.173,45.354 z M19.843,42.52 L22.677,42.52 L22.677,45.354 L19.843,45.354 z M22.677,42.52 L25.512,42.52 L25.512,45.354 L22.677,45.354 z M25.512,42.52 L28.346,42.52 L28.346,45.354 L25.512,45.354 z M31.181,42.52 L34.016,42.52 L34.016,45.354 L31.181,45.354 z M36.85,42.52 L39.685,42.52 L39.685,45.354 L36.85,45.354 z M42.52,42.52 L45.354,42.52 L45.354,45.354 L42.52,45.354 z M45.354,42.52 L48.189,42.52 L48.189,45.354 L45.354,45.354 z M48.189,42.52 L51.024,42.52 L51.024,45.354 L48.189,45.354 z M51.024,42.52 L53.858,42.52 L53.858,45.354 L51.024,45.354 z M53.858,42.52 L56.693,42.52 L56.693,45.354 L53.858,45.354 z M59.528,42.52 L62.362,42.52 L62.362,45.354 L59.528,45.354 z M65.197,42.52 L68.032,42.52 L68.032,45.354 L65.197,45.354 z M70.866,42.52 L73.701,42.52 L73.701,45.354 L70.866,45.354 z M73.701,42.52 L76.535,42.52 L76.535,45.354 L73.701,45.354 z M76.535,42.52 L79.37,42.52 L79.37,45.354 L76.535,45.354 z M85.039,42.52 L87.874,42.52 L87.874,45.354 L85.039,45.354 z M87.874,42.52 L90.709,42.52 L90.709,45.354 L87.874,45.354 z M90.709,42.52 L93.543,42.52 L93.543,45.354 L90.709,45.354 z M96.378,42.52 L99.213,42.52 L99.213,45.354 L96.378,45.354 z M99.213,42.52 L102.047,42.52 L102.047,45.354 L99.213,45.354 z M102.047,42.52 L104.882,42.52 L104.882,45.354 L102.047,45.354 z M17.008,45.354 L19.843,45.354 L19.843,48.189 L17.008,48.189 z M19.843,45.354 L22.677,45.354 L22.677,48.189 L19.843,48.189 z M28.346,45.354 L31.181,45.354 L31.181,48.189 L28.346,48.189 z M31.181,45.354 L34.016,45.354 L34.016,48.189 L31.181,48.189 z M34.016,45.354 L36.85,45.354 L36.85,48.189 L34.016,48.189 z M45.354,45.354 L48.189,45.354 L48.189,48.189 L45.354,48.189 z M48.189,45.354 L51.024,45.354 L51.024,48.189 L48.189,48.189 z M56.693,45.354 L59.528,45.354 L59.528,48.189 L56.693,48.189 z M65.197,45.354 L68.032,45.354 L68.032,48.189 L65.197,48.189 z M68.032,45.354 L70.866,45.354 L70.866,48.189 L68.032,48.189 z M70.866,45.354 L73.701,45.354 L73.701,48.189 L70.866,48.189 z M76.535,45.354 L79.37,45.354 L79.37,48.189 L76.535,48.189 z M85.039,45.354 L87.874,45.354 L87.874,48.189 L85.039,48.189 z M87.874,45.354 L90.709,45.354 L90.709,48.189 L87.874,48.189 z M90.709,45.354 L93.543,45.354 L93.543,48.189 L90.709,48.189 z M93.543,45.354 L96.378,45.354 L96.378,48.189 L93.543,48.189 z M102.047,45.354 L104.882,45.354 L104.882,48.189 L102.047,48.189 z M14.173,48.189 L17.008,48.189 L17.008,51.024 L14.173,51.024 z M19.843,48.189 L22.677,48.189 L22.677,51.024 L19.843,51.024 z M25.512,48.189 L28.346,48.189 L28.346,51.024 L25.512,51.024 z M34.016,48.189 L36.85,48.189 L36.85,51.024 L34.016,51.024 z M36.85,48.189 L39.685,48.189 L39.685,51.024 L36.85,51.024 z M39.685,48.189 L42.52,48.189 L42.52,51.024 L39.685,51.024 z M42.52,48.189 L45.354,48.189 L45.354,51.024 L42.52,51.024 z M51.024,48.189 L53.858,48.189 L53.858,51.024 L51.024,51.024 z M56.693,48.189 L59.528,48.189 L59.528,51.024 L56.693,51.024 z M62.362,48.189 L65.197,48.189 L65.197,51.024 L62.362,51.024 z M70.866,48.189 L73.701,48.189 L73.701,51.024 L70.866,51.024 z M76.535,48.189 L79.37,48.189 L79.37,51.024 L76.535,51.024 z M82.205,48.189 L85.039,48.189 L85.039,51.024 L82.205,51.024 z M87.874,48.189 L90.709,48.189 L90.709,51.024 L87.874,51.024 z M90.709,48.189 L93.543,48.189 L93.543,51.024 L90.709,51.024 z M93.543,48.189 L96.378,48.189 L96.378,51.024 L93.543,51.024 z M96.378,48.189 L99.213,48.189 L99.213,51.024 L96.378,51.024 z M99.213,48.189 L102.047,48.189 L102.047,51.024 L99.213,51.024 z M14.173,51.024 L17.008,51.024 L17.008,53.858 L14.173,53.858 z M19.843,51.024 L22.677,51.024 L22.677,53.858 L19.843,53.858 z M22.677,51.024 L25.512,51.024 L25.512,53.858 L22.677,53.858 z M28.346,51.024 L31.181,51.024 L31.181,53.858 L28.346,53.858 z M34.016,51.024 L36.85,51.024 L36.85,53.858 L34.016,53.858 z M36.85,51.024 L39.685,51.024 L39.685,53.858 L36.85,53.858 z M42.52,51.024 L45.354,51.024 L45.354,53.858 L42.52,53.858 z M45.354,51.024 L48.189,51.024 L48.189,53.858 L45.354,53.858 z M48.189,51.024 L51.024,51.024 L51.024,53.858 L48.189,53.858 z M56.693,51.024 L59.528,51.024 L59.528,53.858 L56.693,53.858 z M79.37,51.024 L82.205,51.024 L82.205,53.858 L79.37,53.858 z M87.874,51.024 L90.709,51.024 L90.709,53.858 L87.874,53.858 z M93.543,51.024 L96.378,51.024 L96.378,53.858 L93.543,53.858 z M19.843,53.858 L22.677,53.858 L22.677,56.693 L19.843,56.693 z M22.677,53.858 L25.512,53.858 L25.512,56.693 L22.677,56.693 z M25.512,53.858 L28.346,53.858 L28.346,56.693 L25.512,56.693 z M31.181,53.858 L34.016,53.858 L34.016,56.693 L31.181,56.693 z M36.85,53.858 L39.685,53.858 L39.685,56.693 L36.85,56.693 z M42.52,53.858 L45.354,53.858 L45.354,56.693 L42.52,56.693 z M45.354,53.858 L48.189,53.858 L48.189,56.693 L45.354,56.693 z M51.024,53.858 L53.858,53.858 L53.858,56.693 L51.024,56.693 z M53.858,53.858 L56.693,53.858 L56.693,56.693 L53.858,56.693 z M56.693,53.858 L59.528,53.858 L59.528,56.693 L56.693,56.693 z M65.197,53.858 L68.032,53.858 L68.032,56.693 L65.197,56.693 z M79.37,53.858 L82.205,53.858 L82.205,56.693 L79.37,56.693 z M82.205,53.858 L85.039,53.858 L85.039,56.693 L82.205,56.693 z M85.039,53.858 L87.874,53.858 L87.874,56.693 L85.039,56.693 z M87.874,53.858 L90.709,53.858 L90.709,56.693 L87.874,56.693 z M96.378,53.858 L99.213,53.858 L99.213,56.693 L96.378,56.693 z M102.047,53.858 L104.882,53.858 L104.882,56.693 L102.047,56.693 z M11.339,56.693 L14.173,56.693 L14.173,59.528 L11.339,59.528 z M14.173,56.693 L17.008,56.693 L17.008,59.528 L14.173,59.528 z M17.008,56.693 L19.843,56.693 L19.843,59.528 L17.008,59.528 z M22.677,56.693 L25.512,56.693 L25.512,59.528 L22.677,59.528 z M28.346,56.693 L31.181,56.693 L31.181,59.528 L28.346,59.528 z M34.016,56.693 L36.85,56.693 L36.85,59.528 L34.016,59.528 z M36.85,56.693 L39.685,56.693 L39.685,59.528 L36.85,59.528 z M42.52,56.693 L45.354,56.693 L45.354,59.528 L42.52,59.528 z M65.197,56.693 L68.032,56.693 L68.032,59.528 L65.197,59.528 z M68.032,56.693 L70.866,56.693 L70.866,59.528 L68.032,59.528 z M76.535,56.693 L79.37,56.693 L79.37,59.528 L76.535,59.528 z M82.205,56.693 L85.039,56.693 L85.039,59.528 L82.205,59.528 z M85.039,56.693 L87.874,56.693 L87.874,59.528 L85.039,59.528 z M87.874,56.693 L90.709,56.693 L90.709,59.528 L87.874,59.528 z M90.709,56.693 L93.543,56.693 L93.543,59.528 L90.709,59.528 z M93.543,56.693 L96.378,56.693 L96.378,59.528 L93.543,59.528 z M99.213,56.693 L102.047,56.693 L102.047,59.528 L99.213,59.528 z M11.339,59.528 L14.173,59.528 L14.173,62.362 L11.339,62.362 z M14.173,59.528 L17.008,59.528 L17.008,62.362 L14.173,62.362 z M22.677,59.528 L25.512,59.528 L25.512,62.362 L22.677,62.362 z M34.016,59.528 L36.85,59.528 L36.85,62.362 L34.016,62.362 z M36.85,59.528 L39.685,59.528 L39.685,62.362 L36.85,62.362 z M39.685,59.528 L42.52,59.528 L42.52,62.362 L39.685,62.362 z M45.354,59.528 L48.189,59.528 L48.189,62.362 L45.354,62.362 z M48.189,59.528 L51.024,59.528 L51.024,62.362 L48.189,62.362 z M53.858,59.528 L56.693,59.528 L56.693,62.362 L53.858,62.362 z M56.693,59.528 L59.528,59.528 L59.528,62.362 L56.693,62.362 z M65.197,59.528 L68.032,59.528 L68.032,62.362 L65.197,62.362 z M68.032,59.528 L70.866,59.528 L70.866,62.362 L68.032,62.362 z M70.866,59.528 L73.701,59.528 L73.701,62.362 L70.866,62.362 z M73.701,59.528 L76.535,59.528 L76.535,62.362 L73.701,62.362 z M79.37,59.528 L82.205,59.528 L82.205,62.362 L79.37,62.362 z M85.039,59.528 L87.874,59.528 L87.874,62.362 L85.039,62.362 z M87.874,59.528 L90.709,59.528 L90.709,62.362 L87.874,62.362 z M90.709,59.528 L93.543,59.528 L93.543,62.362 L90.709,62.362 z M93.543,59.528 L96.378,59.528 L96.378,62.362 L93.543,62.362 z M102.047,59.528 L104.882,59.528 L104.882,62.362 L102.047,62.362 z M11.339,62.362 L14.173,62.362 L14.173,65.197 L11.339,65.197 z M19.843,62.362 L22.677,62.362 L22.677,65.197 L19.843,65.197 z M25.512,62.362 L28.346,62.362 L28.346,65.197 L25.512,65.197 z M28.346,62.362 L31.181,62.362 L31.181,65.197 L28.346,65.197 z M31.181,62.362 L34.016,62.362 L34.016,65.197 L31.181,65.197 z M34.016,62.362 L36.85,62.362 L36.85,65.197 L34.016,65.197 z M39.685,62.362 L42.52,62.362 L42.52,65.197 L39.685,65.197 z M42.52,62.362 L45.354,62.362 L45.354,65.197 L42.52,65.197 z M48.189,62.362 L51.024,62.362 L51.024,65.197 L48.189,65.197 z M51.024,62.362 L53.858,62.362 L53.858,65.197 L51.024,65.197 z M56.693,62.362 L59.528,62.362 L59.528,65.197 L56.693,65.197 z M59.528,62.362 L62.362,62.362 L62.362,65.197 L59.528,65.197 z M70.866,62.362 L73.701,62.362 L73.701,65.197 L70.866,65.197 z M76.535,62.362 L79.37,62.362 L79.37,65.197 L76.535,65.197 z M82.205,62.362 L85.039,62.362 L85.039,65.197 L82.205,65.197 z M85.039,62.362 L87.874,62.362 L87.874,65.197 L85.039,65.197 z M87.874,62.362 L90.709,62.362 L90.709,65.197 L87.874,65.197 z M93.543,62.362 L96.378,62.362 L96.378,65.197 L93.543,65.197 z M96.378,62.362 L99.213,62.362 L99.213,65.197 L96.378,65.197 z M102.047,62.362 L104.882,62.362 L104.882,65.197 L102.047,65.197 z M14.173,65.197 L17.008,65.197 L17.008,68.032 L14.173,68.032 z M22.677,65.197 L25.512,65.197 L25.512,68.032 L22.677,68.032 z M25.512,65.197 L28.346,65.197 L28.346,68.032 L25.512,68.032 z M31.181,65.197 L34.016,65.197 L34.016,68.032 L31.181,68.032 z M36.85,65.197 L39.685,65.197 L39.685,68.032 L36.85,68.032 z M42.52,65.197 L45.354,65.197 L45.354,68.032 L42.52,68.032 z M45.354,65.197 L48.189,65.197 L48.189,68.032 L45.354,68.032 z M51.024,65.197 L53.858,65.197 L53.858,68.032 L51.024,68.032 z M53.858,65.197 L56.693,65.197 L56.693,68.032 L53.858,68.032 z M65.197,65.197 L68.032,65.197 L68.032,68.032 L65.197,68.032 z M68.032,65.197 L70.866,65.197 L70.866,68.032 L68.032,68.032 z M73.701,65.197 L76.535,65.197 L76.535,68.032 L73.701,68.032 z M76.535,65.197 L79.37,65.197 L79.37,68.032 L76.535,68.032 z M79.37,65.197 L82.205,65.197 L82.205,68.032 L79.37,68.032 z M85.039,65.197 L87.874,65.197 L87.874,68.032 L85.039,68.032 z M90.709,65.197 L93.543,65.197 L93.543,68.032 L90.709,68.032 z M93.543,65.197 L96.378,65.197 L96.378,68.032 L93.543,68.032 z M96.378,65.197 L99.213,65.197 L99.213,68.032 L96.378,68.032 z M99.213,65.197 L102.047,65.197 L102.047,68.032 L99.213,68.032 z M11.339,68.032 L14.173,68.032 L14.173,70.866 L11.339,70.866 z M17.008,68.032 L19.843,68.032 L19.843,70.866 L17.008,70.866 z M19.843,68.032 L22.677,68.032 L22.677,70.866 L19.843,70.866 z M28.346,68.032 L31.181,68.032 L31.181,70.866 L28.346,70.866 z M31.181,68.032 L34.016,68.032 L34.016,70.866 L31.181,70.866 z M34.016,68.032 L36.85,68.032 L36.85,70.866 L34.016,70.866 z M36.85,68.032 L39.685,68.032 L39.685,70.866 L36.85,70.866 z M42.52,68.032 L45.354,68.032 L45.354,70.866 L42.52,70.866 z M45.354,68.032 L48.189,68.032 L48.189,70.866 L45.354,70.866 z M48.189,68.032 L51.024,68.032 L51.024,70.866 L48.189,70.866 z M56.693,68.032 L59.528,68.032 L59.528,70.866 L56.693,70.866 z M68.032,68.032 L70.866,68.032 L70.866,70.866 L68.032,70.866 z M79.37,68.032 L82.205,68.032 L82.205,70.866 L79.37,70.866 z M82.205,68.032 L85.039,68.032 L85.039,70.866 L82.205,70.866 z M87.874,68.032 L90.709,68.032 L90.709,70.866 L87.874,70.866 z M93.543,68.032 L96.378,68.032 L96.378,70.866 L93.543,70.866 z M99.213,68.032 L102.047,68.032 L102.047,70.866 L99.213,70.866 z M11.339,70.866 L14.173,70.866 L14.173,73.701 L11.339,73.701 z M19.843,70.866 L22.677,70.866 L22.677,73.701 L19.843,73.701 z M25.512,70.866 L28.346,70.866 L28.346,73.701 L25.512,73.701 z M39.685,70.866 L42.52,70.866 L42.52,73.701 L39.685,73.701 z M42.52,70.866 L45.354,70.866 L45.354,73.701 L42.52,73.701 z M45.354,70.866 L48.189,70.866 L48.189,73.701 L45.354,73.701 z M48.189,70.866 L51.024,70.866 L51.024,73.701 L48.189,73.701 z M59.528,70.866 L62.362,70.866 L62.362,73.701 L59.528,73.701 z M65.197,70.866 L68.032,70.866 L68.032,73.701 L65.197,73.701 z M68.032,70.866 L70.866,70.866 L70.866,73.701 L68.032,73.701 z M70.866,70.866 L73.701,70.866 L73.701,73.701 L70.866,73.701 z M82.205,70.866 L85.039,70.866 L85.039,73.701 L82.205,73.701 z M85.039,70.866 L87.874,70.866 L87.874,73.701 L85.039,73.701 z M90.709,70.866 L93.543,70.866 L93.543,73.701 L90.709,73.701 z M93.543,70.866 L96.378,70.866 L96.378,73.701 L93.543,73.701 z M96.378,70.866 L99.213,70.866 L99.213,73.701 L96.378,73.701 z M99.213,70.866 L102.047,70.866 L102.047,73.701 L99.213,73.701 z M11.339,73.701 L14.173,73.701 L14.173,76.535 L11.339,76.535 z M25.512,73.701 L28.346,73.701 L28.346,76.535 L25.512,76.535 z M28.346,73.701 L31.181,73.701 L31.181,76.535 L28.346,76.535 z M31.181,73.701 L34.016,73.701 L34.016,76.535 L31.181,76.535 z M39.685,73.701 L42.52,73.701 L42.52,76.535 L39.685,76.535 z M48.189,73.701 L51.024,73.701 L51.024,76.535 L48.189,76.535 z M51.024,73.701 L53.858,73.701 L53.858,76.535 L51.024,76.535 z M53.858,73.701 L56.693,73.701 L56.693,76.535 L53.858,76.535 z M59.528,73.701 L62.362,73.701 L62.362,76.535 L59.528,76.535 z M65.197,73.701 L68.032,73.701 L68.032,76.535 L65.197,76.535 z M73.701,73.701 L76.535,73.701 L76.535,76.535 L73.701,76.535 z M79.37,73.701 L82.205,73.701 L82.205,76.535 L79.37,76.535 z M85.039,73.701 L87.874,73.701 L87.874,76.535 L85.039,76.535 z M90.709,73.701 L93.543,73.701 L93.543,76.535 L90.709,76.535 z M99.213,73.701 L102.047,73.701 L102.047,76.535 L99.213,76.535 z M102.047,73.701 L104.882,73.701 L104.882,76.535 L102.047,76.535 z M11.339,76.535 L14.173,76.535 L14.173,79.37 L11.339,79.37 z M19.843,76.535 L22.677,76.535 L22.677,79.37 L19.843,79.37 z M22.677,76.535 L25.512,76.535 L25.512,79.37 L22.677,79.37 z M25.512,76.535 L28.346,76.535 L28.346,79.37 L25.512,79.37 z M34.016,76.535 L36.85,76.535 L36.85,79.37 L34.016,79.37 z M39.685,76.535 L42.52,76.535 L42.52,79.37 L39.685,79.37 z M48.189,76.535 L51.024,76.535 L51.024,79.37 L48.189,79.37 z M53.858,76.535 L56.693,76.535 L56.693,79.37 L53.858,79.37 z M56.693,76.535 L59.528,76.535 L59.528,79.37 L56.693,79.37 z M68.032,76.535 L70.866,76.535 L70.866,79.37 L68.032,79.37 z M87.874,76.535 L90.709,76.535 L90.709,79.37 L87.874,79.37 z M90.709,76.535 L93.543,76.535 L93.543,79.37 L90.709,79.37 z M96.378,76.535 L99.213,76.535 L99.213,79.37 L96.378,79.37 z M11.339,79.37 L14.173,79.37 L14.173,82.205 L11.339,82.205 z M14.173,79.37 L17.008,79.37 L17.008,82.205 L14.173,82.205 z M17.008,79.37 L19.843,79.37 L19.843,82.205 L17.008,82.205 z M19.843,79.37 L22.677,79.37 L22.677,82.205 L19.843,82.205 z M22.677,79.37 L25.512,79.37 L25.512,82.205 L22.677,82.205 z M25.512,79.37 L28.346,79.37 L28.346,82.205 L25.512,82.205 z M28.346,79.37 L31.181,79.37 L31.181,82.205 L28.346,82.205 z M31.181,79.37 L34.016,79.37 L34.016,82.205 L31.181,82.205 z M34.016,79.37 L36.85,79.37 L36.85,82.205 L34.016,82.205 z M36.85,79.37 L39.685,79.37 L39.685,82.205 L36.85,82.205 z M39.685,79.37 L42.52,79.37 L42.52,82.205 L39.685,82.205 z M42.52,79.37 L45.354,79.37 L45.354,82.205 L42.52,82.205 z M45.354,79.37 L48.189,79.37 L48.189,82.205 L45.354,82.205 z M51.024,79.37 L53.858,79.37 L53.858,82.205 L51.024,82.205 z M59.528,79.37 L62.362,79.37 L62.362,82.205 L59.528,82.205 z M62.362,79.37 L65.197,79.37 L65.197,82.205 L62.362,82.205 z M65.197,79.37 L68.032,79.37 L68.032,82.205 L65.197,82.205 z M79.37,79.37 L82.205,79.37 L82.205,82.205 L79.37,82.205 z M82.205,79.37 L85.039,79.37 L85.039,82.205 L82.205,82.205 z M85.039,79.37 L87.874,79.37 L87.874,82.205 L85.039,82.205 z M87.874,79.37 L90.709,79.37 L90.709,82.205 L87.874,82.205 z M90.709,79.37 L93.543,79.37 L93.543,82.205 L90.709,82.205 z M99.213,79.37 L102.047,79.37 L102.047,82.205 L99.213,82.205 z M102.047,79.37 L104.882,79.37 L104.882,82.205 L102.047,82.205 z M34.016,82.205 L36.85,82.205 L36.85,85.039 L34.016,85.039 z M51.024,82.205 L53.858,82.205 L53.858,85.039 L51.024,85.039 z M53.858,82.205 L56.693,82.205 L56.693,85.039 L53.858,85.039 z M56.693,82.205 L59.528,82.205 L59.528,85.039 L56.693,85.039 z M65.197,82.205 L68.032,82.205 L68.032,85.039 L65.197,85.039 z M73.701,82.205 L76.535,82.205 L76.535,85.039 L73.701,85.039 z M76.535,82.205 L79.37,82.205 L79.37,85.039 L76.535,85.039 z M79.37,82.205 L82.205,82.205 L82.205,85.039 L79.37,85.039 z M90.709,82.205 L93.543,82.205 L93.543,85.039 L90.709,85.039 z M93.543,82.205 L96.378,82.205 L96.378,85.039 L93.543,85.039 z M11.339,85.039 L14.173,85.039 L14.173,87.874 L11.339,87.874 z M14.173,85.039 L17.008,85.039 L17.008,87.874 L14.173,87.874 z M17.008,85.039 L19.843,85.039 L19.843,87.874 L17.008,87.874 z M19.843,85.039 L22.677,85.039 L22.677,87.874 L19.843,87.874 z M22.677,85.039 L25.512,85.039 L25.512,87.874 L22.677,87.874 z M25.512,85.039 L28.346,85.039 L28.346,87.874 L25.512,87.874 z M28.346,85.039 L31.181,85.039 L31.181,87.874 L28.346,87.874 z M34.016,85.039 L36.85,85.039 L36.85,87.874 L34.016,87.874 z M42.52,85.039 L45.354,85.039 L45.354,87.874 L42.52,87.874 z M51.024,85.039 L53.858,85.039 L53.858,87.874 L51.024,87.874 z M53.858,85.039 L56.693,85.039 L56.693,87.874 L53.858,87.874 z M62.362,85.039 L65.197,85.039 L65.197,87.874 L62.362,87.874 z M65.197,85.039 L68.032,85.039 L68.032,87.874 L65.197,87.874 z M70.866,85.039 L73.701,85.039 L73.701,87.874 L70.866,87.874 z M73.701,85.039 L76.535,85.039 L76.535,87.874 L73.701,87.874 z M76.535,85.039 L79.37,85.039 L79.37,87.874 L76.535,87.874 z M79.37,85.039 L82.205,85.039 L82.205,87.874 L79.37,87.874 z M85.039,85.039 L87.874,85.039 L87.874,87.874 L85.039,87.874 z M90.709,85.039 L93.543,85.039 L93.543,87.874 L90.709,87.874 z M93.543,85.039 L96.378,85.039 L96.378,87.874 L93.543,87.874 z M11.339,87.874 L14.173,87.874 L14.173,90.709 L11.339,90.709 z M28.346,87.874 L31.181,87.874 L31.181,90.709 L28.346,90.709 z M36.85,87.874 L39.685,87.874 L39.685,90.709 L36.85,90.709 z M39.685,87.874 L42.52,87.874 L42.52,90.709 L39.685,90.709 z M53.858,87.874 L56.693,87.874 L56.693,90.709 L53.858,90.709 z M56.693,87.874 L59.528,87.874 L59.528,90.709 L56.693,90.709 z M59.528,87.874 L62.362,87.874 L62.362,90.709 L59.528,90.709 z M68.032,87.874 L70.866,87.874 L70.866,90.709 L68.032,90.709 z M76.535,87.874 L79.37,87.874 L79.37,90.709 L76.535,90.709 z M79.37,87.874 L82.205,87.874 L82.205,90.709 L79.37,90.709 z M90.709,87.874 L93.543,87.874 L93.543,90.709 L90.709,90.709 z M93.543,87.874 L96.378,87.874 L96.378,90.709 L93.543,90.709 z M96.378,87.874 L99.213,87.874 L99.213,90.709 L96.378,90.709 z M99.213,87.874 L102.047,87.874 L102.047,90.709 L99.213,90.709 z M11.339,90.709 L14.173,90.709 L14.173,93.543 L11.339,93.543 z M17.008,90.709 L19.843,90.709 L19.843,93.543 L17.008,93.543 z M19.843,90.709 L22.677,90.709 L22.677,93.543 L19.843,93.543 z M22.677,90.709 L25.512,90.709 L25.512,93.543 L22.677,93.543 z M28.346,90.709 L31.181,90.709 L31.181,93.543 L28.346,93.543 z M34.016,90.709 L36.85,90.709 L36.85,93.543 L34.016,93.543 z M42.52,90.709 L45.354,90.709 L45.354,93.543 L42.52,93.543 z M45.354,90.709 L48.189,90.709 L48.189,93.543 L45.354,93.543 z M48.189,90.709 L51.024,90.709 L51.024,93.543 L48.189,93.543 z M56.693,90.709 L59.528,90.709 L59.528,93.543 L56.693,93.543 z M59.528,90.709 L62.362,90.709 L62.362,93.543 L59.528,93.543 z M62.362,90.709 L65.197,90.709 L65.197,93.543 L62.362,93.543 z M65.197,90.709 L68.032,90.709 L68.032,93.543 L65.197,93.543 z M68.032,90.709 L70.866,90.709 L70.866,93.543 L68.032,93.543 z M70.866,90.709 L73.701,90.709 L73.701,93.543 L70.866,93.543 z M76.535,90.709 L79.37,90.709 L79.37,93.543 L76.535,93.543 z M79.37,90.709 L82.205,90.709 L82.205,93.543 L79.37,93.543 z M82.205,90.709 L85.039,90.709 L85.039,93.543 L82.205,93.543 z M85.039,90.709 L87.874,90.709 L87.874,93.543 L85.039,93.543 z M87.874,90.709 L90.709,90.709 L90.709,93.543 L87.874,93.543 z M90.709,90.709 L93.543,90.709 L93.543,93.543 L90.709,93.543 z M93.543,90.709 L96.378,90.709 L96.378,93.543 L93.543,93.543 z M99.213,90.709 L102.047,90.709 L102.047,93.543 L99.213,93.543 z M11.339,93.543 L14.173,93.543 L14.173,96.378 L11.339,96.378 z M17.008,93.543 L19.843,93.543 L19.843,96.378 L17.008,96.378 z M19.843,93.543 L22.677,93.543 L22.677,96.378 L19.843,96.378 z M22.677,93.543 L25.512,93.543 L25.512,96.378 L22.677,96.378 z M28.346,93.543 L31.181,93.543 L31.181,96.378 L28.346,96.378 z M34.016,93.543 L36.85,93.543 L36.85,96.378 L34.016,96.378 z M39.685,93.543 L42.52,93.543 L42.52,96.378 L39.685,96.378 z M48.189,93.543 L51.024,93.543 L51.024,96.378 L48.189,96.378 z M51.024,93.543 L53.858,93.543 L53.858,96.378 L51.024,96.378 z M53.858,93.543 L56.693,93.543 L56.693,96.378 L53.858,96.378 z M56.693,93.543 L59.528,93.543 L59.528,96.378 L56.693,96.378 z M59.528,93.543 L62.362,93.543 L62.362,96.378 L59.528,96.378 z M62.362,93.543 L65.197,93.543 L65.197,96.378 L62.362,96.378 z M65.197,93.543 L68.032,93.543 L68.032,96.378 L65.197,96.378 z M68.032,93.543 L70.866,93.543 L70.866,96.378 L68.032,96.378 z M70.866,93.543 L73.701,93.543 L73.701,96.378 L70.866,96.378 z M82.205,93.543 L85.039,93.543 L85.039,96.378 L82.205,96.378 z M87.874,93.543 L90.709,93.543 L90.709,96.378 L87.874,96.378 z M99.213,93.543 L102.047,93.543 L102.047,96.378 L99.213,96.378 z M11.339,96.378 L14.173,96.378 L14.173,99.213 L11.339,99.213 z M17.008,96.378 L19.843,96.378 L19.843,99.213 L17.008,99.213 z M19.843,96.378 L22.677,96.378 L22.677,99.213 L19.843,99.213 z M22.677,96.378 L25.512,96.378 L25.512,99.213 L22.677,99.213 z M28.346,96.378 L31.181,96.378 L31.181,99.213 L28.346,99.213 z M36.85,96.378 L39.685,96.378 L39.685,99.213 L36.85,99.213 z M42.52,96.378 L45.354,96.378 L45.354,99.213 L42.52,99.213 z M45.354,96.378 L48.189,96.378 L48.189,99.213 L45.354,99.213 z M48.189,96.378 L51.024,96.378 L51.024,99.213 L48.189,99.213 z M51.024,96.378 L53.858,96.378 L53.858,99.213 L51.024,99.213 z M53.858,96.378 L56.693,96.378 L56.693,99.213 L53.858,99.213 z M59.528,96.378 L62.362,96.378 L62.362,99.213 L59.528,99.213 z M68.032,96.378 L70.866,96.378 L70.866,99.213 L68.032,99.213 z M73.701,96.378 L76.535,96.378 L76.535,99.213 L73.701,99.213 z M76.535,96.378 L79.37,96.378 L79.37,99.213 L76.535,99.213 z M79.37,96.378 L82.205,96.378 L82.205,99.213 L79.37,99.213 z M90.709,96.378 L93.543,96.378 L93.543,99.213 L90.709,99.213 z M99.213,96.378 L102.047,96.378 L102.047,99.213 L99.213,99.213 z M102.047,96.378 L104.882,96.378 L104.882,99.213 L102.047,99.213 z M11.339,99.213 L14.173,99.213 L14.173,102.047 L11.339,102.047 z M28.346,99.213 L31.181,99.213 L31.181,102.047 L28.346,102.047 z M36.85,99.213 L39.685,99.213 L39.685,102.047 L36.85,102.047 z M39.685,99.213 L42.52,99.213 L42.52,102.047 L39.685,102.047 z M42.52,99.213 L45.354,99.213 L45.354,102.047 L42.52,102.047 z M45.354,99.213 L48.189,99.213 L48.189,102.047 L45.354,102.047 z M53.858,99.213 L56.693,99.213 L56.693,102.047 L53.858,102.047 z M62.362,99.213 L65.197,99.213 L65.197,102.047 L62.362,102.047 z M65.197,99.213 L68.032,99.213 L68.032,102.047 L65.197,102.047 z M68.032,99.213 L70.866,99.213 L70.866,102.047 L68.032,102.047 z M73.701,99.213 L76.535,99.213 L76.535,102.047 L73.701,102.047 z M76.535,99.213 L79.37,99.213 L79.37,102.047 L76.535,102.047 z M82.205,99.213 L85.039,99.213 L85.039,102.047 L82.205,102.047 z M85.039,99.213 L87.874,99.213 L87.874,102.047 L85.039,102.047 z M96.378,99.213 L99.213,99.213 L99.213,102.047 L96.378,102.047 z M99.213,99.213 L102.047,99.213 L102.047,102.047 L99.213,102.047 z M102.047,99.213 L104.882,99.213 L104.882,102.047 L102.047,102.047 z M11.339,102.047 L14.173,102.047 L14.173,104.882 L11.339,104.882 z M14.173,102.047 L17.008,102.047 L17.008,104.882 L14.173,104.882 z M17.008,102.047 L19.843,102.047 L19.843,104.882 L17.008,104.882 z M19.843,102.047 L22.677,102.047 L22.677,104.882 L19.843,104.882 z M22.677,102.047 L25.512,102.047 L25.512,104.882 L22.677,104.882 z M25.512,102.047 L28.346,102.047 L28.346,104.882 L25.512,104.882 z M28.346,102.047 L31.181,102.047 L31.181,104.882 L28.346,104.882 z M36.85,102.047 L39.685,102.047 L39.685,104.882 L36.85,104.882 z M45.354,102.047 L48.189,102.047 L48.189,104.882 L45.354,104.882 z M51.024,102.047 L53.858,102.047 L53.858,104.882 L51.024,104.882 z M56.693,102.047 L59.528,102.047 L59.528,104.882 L56.693,104.882 z M62.362,102.047 L65.197,102.047 L65.197,104.882 L62.362,104.882 z M76.535,102.047 L79.37,102.047 L79.37,104.882 L76.535,104.882 z M79.37,102.047 L82.205,102.047 L82.205,104.882 L79.37,104.882 z M90.709,102.047 L93.543,102.047 L93.543,104.882 L90.709,104.882 z M96.378,102.047 L99.213,102.047 L99.213,104.882 L96.378,104.882 z" fill="#20441A" id="qr-path"/>
  </g>
</svg>
