<?xml version="1.0" encoding="UTF-8"?>
<!DOCTYPE svg PUBLIC "-//W3C//DTD SVG 1.1//EN" "http://www.w3.org/Graphics/SVG/1.1/DTD/svg11.dtd">
<svg version="1.1" xmlns="http://www.w3.org/2000/svg" xmlns:xlink="http://www.w3.org/1999/xlink" x="0" y="0" width="116.22" height="116.22" viewBox="0, 0, 116.22, 116.22">
  <g id="Background">
    <rect x="0" y="0" width="116.22" height="116.22" fill="#20441A"/>
  </g>
  <g id="Layer_1">
    <path d="M5.61,5.61 L8.791,5.61 L8.791,8.791 L5.61,8.791 z M8.791,5.61 L11.973,5.61 L11.973,8.791 L8.791,8.791 z M11.973,5.61 L15.156,5.61 L15.156,8.791 L11.973,8.791 z M15.156,5.61 L18.337,5.61 L18.337,8.791 L15.156,8.791 z M18.337,5.61 L21.519,5.61 L21.519,8.791 L18.337,8.791 z M21.519,5.61 L24.7,5.61 L24.7,8.791 L21.519,8.791 z M24.7,5.61 L27.882,5.61 L27.882,8.791 L24.7,8.791 z M40.61,5.61 L43.791,5.61 L43.791,8.791 L40.61,8.791 z M43.791,5.61 L46.973,5.61 L46.973,8.791 L43.791,8.791 z M46.973,5.61 L50.156,5.61 L50.156,8.791 L46.973,8.791 z M50.156,5.61 L53.337,5.61 L53.337,8.791 L50.156,8.791 z M56.519,5.61 L59.701,5.61 L59.701,8.791 L56.519,8.791 z M62.882,5.61 L66.064,5.61 L66.064,8.791 L62.882,8.791 z M66.064,5.61 L69.247,5.61 L69.247,8.791 L66.064,8.791 z M69.247,5.61 L72.428,5.61 L72.428,8.791 L69.247,8.791 z M72.428,5.61 L75.61,5.61 L75.61,8.791 L72.428,8.791 z M75.61,5.61 L78.791,5.61 L78.791,8.791 L75.61,8.791 z M81.973,5.61 L85.156,5.61 L85.156,8.791 L81.973,8.791 z M88.337,5.61 L91.519,5.61 L91.519,8.791 L88.337,8.791 z M91.519,5.61 L94.701,5.61 L94.701,8.791 L91.519,8.791 z M94.701,5.61 L97.882,5.61 L97.882,8.791 L94.701,8.791 z M97.882,5.61 L101.064,5.61 L101.064,8.791 L97.882,8.791 z M101.064,5.61 L104.247,5.61 L104.247,8.791 L101.064,8.791 z M104.247,5.61 L107.428,5.61 L107.428,8.791 L104.247,8.791 z M107.428,5.61 L110.61,5.61 L110.61,8.791 L107.428,8.791 z M5.61,8.791 L8.791,8.791 L8.791,11.973 L5.61,11.973 z M24.7,8.791 L27.882,8.791 L27.882,11.973 L24.7,11.973 z M37.428,8.791 L40.61,8.791 L40.61,11.973 L37.428,11.973 z M40.61,8.791 L43.791,8.791 L43.791,11.973 L40.61,11.973 z M43.791,8.791 L46.973,8.791 L46.973,11.973 L43.791,11.973 z M59.701,8.791 L62.882,8.791 L62.882,11.973 L59.701,11.973 z M62.882,8.791 L66.064,8.791 L66.064,11.973 L62.882,11.973 z M69.247,8.791 L72.428,8.791 L72.428,11.973 L69.247,11.973 z M72.428,8.791 L75.61,8.791 L75.61,11.973 L72.428,11.973 z M81.973,8.791 L85.156,8.791 L85.156,11.973 L81.973,11.973 z M88.337,8.791 L91.519,8.791 L91.519,11.973 L88.337,11.973 z M107.428,8.791 L110.61,8.791 L110.61,11.973 L107.428,11.973 z M5.61,11.973 L8.791,11.973 L8.791,15.156 L5.61,15.156 z M11.973,11.973 L15.156,11.973 L15.156,15.156 L11.973,15.156 z M15.156,11.973 L18.337,11.973 L18.337,15.156 L15.156,15.156 z M18.337,11.973 L21.519,11.973 L21.519,15.156 L18.337,15.156 z M24.7,11.973 L27.882,11.973 L27.882,15.156 L24.7,15.156 z M31.064,11.973 L34.246,11.973 L34.246,15.156 L31.064,15.156 z M37.428,11.973 L40.61,11.973 L40.61,15.156 L37.428,15.156 z M40.61,11.973 L43.791,11.973 L43.791,15.156 L40.61,15.156 z M46.973,11.973 L50.156,11.973 L50.156,15.156 L46.973,15.156 z M50.156,11.973 L53.337,11.973 L53.337,15.156 L50.156,15.156 z M53.337,11.973 L56.519,11.973 L56.519,15.156 L53.337,15.156 z M56.519,11.973 L59.701,11.973 L59.701,15.156 L56.519,15.156 z M66.064,11.973 L69.247,11.973 L69.247,15.156 L66.064,15.156 z M69.247,11.973 L72.428,11.973 L72.428,15.156 L69.247,15.156 z M72.428,11.973 L75.61,11.973 L75.61,15.156 L72.428,15.156 z M78.791,11.973 L81.973,11.973 L81.973,15.156 L78.791,15.156 z M81.973,11.973 L85.156,11.973 L85.156,15.156 L81.973,15.156 z M88.337,11.973 L91.519,11.973 L91.519,15.156 L88.337,15.156 z M94.701,11.973 L97.882,11.973 L97.882,15.156 L94.701,15.156 z M97.882,11.973 L101.064,11.973 L101.064,15.156 L97.882,15.156 z M101.064,11.973 L104.247,11.973 L104.247,15.156 L101.064,15.156 z M107.428,11.973 L110.61,11.973 L110.61,15.156 L107.428,15.156 z M5.61,15.156 L8.791,15.156 L8.791,18.337 L5.61,18.337 z M11.973,15.156 L15.156,15.156 L15.156,18.337 L11.973,18.337 z M15.156,15.156 L18.337,15.156 L18.337,18.337 L15.156,18.337 z M18.337,15.156 L21.519,15.156 L21.519,18.337 L18.337,18.337 z M24.7,15.156 L27.882,15.156 L27.882,18.337 L24.7,18.337 z M31.064,15.156 L34.246,15.156 L34.246,18.337 L31.064,18.337 z M43.791,15.156 L46.973,15.156 L46.973,18.337 L43.791,18.337 z M50.156,15.156 L53.337,15.156 L53.337,18.337 L50.156,18.337 z M53.337,15.156 L56.519,15.156 L56.519,18.337 L53.337,18.337 z M59.701,15.156 L62.882,15.156 L62.882,18.337 L59.701,18.337 z M66.064,15.156 L69.247,15.156 L69.247,18.337 L66.064,18.337 z M69.247,15.156 L72.428,15.156 L72.428,18.337 L69.247,18.337 z M72.428,15.156 L75.61,15.156 L75.61,18.337 L72.428,18.337 z M75.61,15.156 L78.791,15.156 L78.791,18.337 L75.61,18.337 z M78.791,15.156 L81.973,15.156 L81.973,18.337 L78.791,18.337 z M88.337,15.156 L91.519,15.156 L91.519,18.337 L88.337,18.337 z M94.701,15.156 L97.882,15.156 L97.882,18.337 L94.701,18.337 z M97.882,15.156 L101.064,15.156 L101.064,18.337 L97.882,18.337 z M101.064,15.156 L104.247,15.156 L104.247,18.337 L101.064,18.337 z M107.428,15.156 L110.61,15.156 L110.61,18.337 L107.428,18.337 z M5.61,18.337 L8.791,18.337 L8.791,21.519 L5.61,21.519 z M11.973,18.337 L15.156,18.337 L15.156,21.519 L11.973,21.519 z M15.156,18.337 L18.337,18.337 L18.337,21.519 L15.156,21.519 z M18.337,18.337 L21.519,18.337 L21.519,21.519 L18.337,21.519 z M24.7,18.337 L27.882,18.337 L27.882,21.519 L24.7,21.519 z M37.428,18.337 L40.61,18.337 L40.61,21.519 L37.428,21.519 z M43.791,18.337 L46.973,18.337 L46.973,21.519 L43.791,21.519 z M56.519,18.337 L59.701,18.337 L59.701,21.519 L56.519,21.519 z M66.064,18.337 L69.247,18.337 L69.247,21.519 L66.064,21.519 z M69.247,18.337 L72.428,18.337 L72.428,21.519 L69.247,21.519 z M78.791,18.337 L81.973,18.337 L81.973,21.519 L78.791,21.519 z M81.973,18.337 L85.156,18.337 L85.156,21.519 L81.973,21.519 z M88.337,18.337 L91.519,18.337 L91.519,21.519 L88.337,21.519 z M94.701,18.337 L97.882,18.337 L97.882,21.519 L94.701,21.519 z M97.882,18.337 L101.064,18.337 L101.064,21.519 L97.882,21.519 z M101.064,18.337 L104.247,18.337 L104.247,21.519 L101.064,21.519 z M107.428,18.337 L110.61,18.337 L110.61,21.519 L107.428,21.519 z M5.61,21.519 L8.791,21.519 L8.791,24.7 L5.61,24.7 z M24.7,21.519 L27.882,21.519 L27.882,24.7 L24.7,24.7 z M37.428,21.519 L40.61,21.519 L40.61,24.7 L37.428,24.7 z M40.61,21.519 L43.791,21.519 L43.791,24.7 L40.61,24.7 z M62.882,21.519 L66.064,21.519 L66.064,24.7 L62.882,24.7 z M72.428,21.519 L75.61,21.519 L75.61,24.7 L72.428,24.7 z M78.791,21.519 L81.973,21.519 L81.973,24.7 L78.791,24.7 z M88.337,21.519 L91.519,21.519 L91.519,24.7 L88.337,24.7 z M107.428,21.519 L110.61,21.519 L110.61,24.7 L107.428,24.7 z M5.61,24.7 L8.791,24.7 L8.791,27.882 L5.61,27.882 z M8.791,24.7 L11.973,24.7 L11.973,27.882 L8.791,27.882 z M11.973,24.7 L15.156,24.7 L15.156,27.882 L11.973,27.882 z M15.156,24.7 L18.337,24.7 L18.337,27.882 L15.156,27.882 z M18.337,24.7 L21.519,24.7 L21.519,27.882 L18.337,27.882 z M21.519,24.7 L24.7,24.7 L24.7,27.882 L21.519,27.882 z M24.7,24.7 L27.882,24.7 L27.882,27.882 L24.7,27.882 z M31.064,24.7 L34.246,24.7 L34.246,27.882 L31.064,27.882 z M37.428,24.7 L40.61,24.7 L40.61,27.882 L37.428,27.882 z M43.791,24.7 L46.973,24.7 L46.973,27.882 L43.791,27.882 z M50.156,24.7 L53.337,24.7 L53.337,27.882 L50.156,27.882 z M56.519,24.7 L59.701,24.7 L59.701,27.882 L56.519,27.882 z M62.882,24.7 L66.064,24.7 L66.064,27.882 L62.882,27.882 z M69.247,24.7 L72.428,24.7 L72.428,27.882 L69.247,27.882 z M75.61,24.7 L78.791,24.7 L78.791,27.882 L75.61,27.882 z M81.973,24.7 L85.156,24.7 L85.156,27.882 L81.973,27.882 z M88.337,24.7 L91.519,24.7 L91.519,27.882 L88.337,27.882 z M91.519,24.7 L94.701,24.7 L94.701,27.882 L91.519,27.882 z M94.701,24.7 L97.882,24.7 L97.882,27.882 L94.701,27.882 z M97.882,24.7 L101.064,24.7 L101.064,27.882 L97.882,27.882 z M101.064,24.7 L104.247,24.7 L104.247,27.882 L101.064,27.882 z M104.247,24.7 L107.428,24.7 L107.428,27.882 L104.247,27.882 z M107.428,24.7 L110.61,24.7 L110.61,27.882 L107.428,27.882 z M43.791,27.882 L46.973,27.882 L46.973,31.064 L43.791,31.064 z M56.519,27.882 L59.701,27.882 L59.701,31.064 L56.519,31.064 z M59.701,27.882 L62.882,27.882 L62.882,31.064 L59.701,31.064 z M62.882,27.882 L66.064,27.882 L66.064,31.064 L62.882,31.064 z M69.247,27.882 L72.428,27.882 L72.428,31.064 L69.247,31.064 z M81.973,27.882 L85.156,27.882 L85.156,31.064 L81.973,31.064 z M15.156,31.064 L18.337,31.064 L18.337,34.246 L15.156,34.246 z M18.337,31.064 L21.519,31.064 L21.519,34.246 L18.337,34.246 z M24.7,31.064 L27.882,31.064 L27.882,34.246 L24.7,34.246 z M27.882,31.064 L31.064,31.064 L31.064,34.246 L27.882,34.246 z M34.246,31.064 L37.428,31.064 L37.428,34.246 L34.246,34.246 z M43.791,31.064 L46.973,31.064 L46.973,34.246 L43.791,34.246 z M46.973,31.064 L50.156,31.064 L50.156,34.246 L46.973,34.246 z M50.156,31.064 L53.337,31.064 L53.337,34.246 L50.156,34.246 z M59.701,31.064 L62.882,31.064 L62.882,34.246 L59.701,34.246 z M62.882,31.064 L66.064,31.064 L66.064,34.246 L62.882,34.246 z M66.064,31.064 L69.247,31.064 L69.247,34.246 L66.064,34.246 z M69.247,31.064 L72.428,31.064 L72.428,34.246 L69.247,34.246 z M81.973,31.064 L85.156,31.064 L85.156,34.246 L81.973,34.246 z M97.882,31.064 L101.064,31.064 L101.064,34.246 L97.882,34.246 z M101.064,31.064 L104.247,31.064 L104.247,34.246 L101.064,34.246 z M15.156,34.246 L18.337,34.246 L18.337,37.428 L15.156,37.428 z M21.519,34.246 L24.7,34.246 L24.7,37.428 L21.519,37.428 z M31.064,34.246 L34.246,34.246 L34.246,37.428 L31.064,37.428 z M34.246,34.246 L37.428,34.246 L37.428,37.428 L34.246,37.428 z M40.61,34.246 L43.791,34.246 L43.791,37.428 L40.61,37.428 z M69.247,34.246 L72.428,34.246 L72.428,37.428 L69.247,37.428 z M72.428,34.246 L75.61,34.246 L75.61,37.428 L72.428,37.428 z M75.61,34.246 L78.791,34.246 L78.791,37.428 L75.61,37.428 z M78.791,34.246 L81.973,34.246 L81.973,37.428 L78.791,37.428 z M81.973,34.246 L85.156,34.246 L85.156,37.428 L81.973,37.428 z M85.156,34.246 L88.337,34.246 L88.337,37.428 L85.156,37.428 z M91.519,34.246 L94.701,34.246 L94.701,37.428 L91.519,37.428 z M94.701,34.246 L97.882,34.246 L97.882,37.428 L94.701,37.428 z M101.064,34.246 L104.247,34.246 L104.247,37.428 L101.064,37.428 z M104.247,34.246 L107.428,34.246 L107.428,37.428 L104.247,37.428 z M8.791,37.428 L11.973,37.428 L11.973,40.61 L8.791,40.61 z M11.973,37.428 L15.156,37.428 L15.156,40.61 L11.973,40.61 z M18.337,37.428 L21.519,37.428 L21.519,40.61 L18.337,40.61 z M24.7,37.428 L27.882,37.428 L27.882,40.61 L24.7,40.61 z M27.882,37.428 L31.064,37.428 L31.064,40.61 L27.882,40.61 z M31.064,37.428 L34.246,37.428 L34.246,40.61 L31.064,40.61 z M34.246,37.428 L37.428,37.428 L37.428,40.61 L34.246,40.61 z M37.428,37.428 L40.61,37.428 L40.61,40.61 L37.428,40.61 z M40.61,37.428 L43.791,37.428 L43.791,40.61 L40.61,40.61 z M46.973,37.428 L50.156,37.428 L50.156,40.61 L46.973,40.61 z M50.156,37.428 L53.337,37.428 L53.337,40.61 L50.156,40.61 z M53.337,37.428 L56.519,37.428 L56.519,40.61 L53.337,40.61 z M62.882,37.428 L66.064,37.428 L66.064,40.61 L62.882,40.61 z M66.064,37.428 L69.247,37.428 L69.247,40.61 L66.064,40.61 z M69.247,37.428 L72.428,37.428 L72.428,40.61 L69.247,40.61 z M75.61,37.428 L78.791,37.428 L78.791,40.61 L75.61,40.61 z M78.791,37.428 L81.973,37.428 L81.973,40.61 L78.791,40.61 z M81.973,37.428 L85.156,37.428 L85.156,40.61 L81.973,40.61 z M85.156,37.428 L88.337,37.428 L88.337,40.61 L85.156,40.61 z M91.519,37.428 L94.701,37.428 L94.701,40.61 L91.519,40.61 z M97.882,37.428 L101.064,37.428 L101.064,40.61 L97.882,40.61 z M104.247,37.428 L107.428,37.428 L107.428,40.61 L104.247,40.61 z M107.428,37.428 L110.61,37.428 L110.61,40.61 L107.428,40.61 z M8.791,40.61 L11.973,40.61 L11.973,43.791 L8.791,43.791 z M15.156,40.61 L18.337,40.61 L18.337,43.791 L15.156,43.791 z M18.337,40.61 L21.519,40.61 L21.519,43.791 L18.337,43.791 z M21.519,40.61 L24.7,40.61 L24.7,43.791 L21.519,43.791 z M27.882,40.61 L31.064,40.61 L31.064,43.791 L27.882,43.791 z M34.246,40.61 L37.428,40.61 L37.428,43.791 L34.246,43.791 z M40.61,40.61 L43.791,40.61 L43.791,43.791 L40.61,43.791 z M43.791,40.61 L46.973,40.61 L46.973,43.791 L43.791,43.791 z M46.973,40.61 L50.156,40.61 L50.156,43.791 L46.973,43.791 z M50.156,40.61 L53.337,40.61 L53.337,43.791 L50.156,43.791 z M53.337,40.61 L56.519,40.61 L56.519,43.791 L53.337,43.791 z M59.701,40.61 L62.882,40.61 L62.882,43.791 L59.701,43.791 z M66.064,40.61 L69.247,40.61 L69.247,43.791 L66.064,43.791 z M72.428,40.61 L75.61,40.61 L75.61,43.791 L72.428,43.791 z M75.61,40.61 L78.791,40.61 L78.791,43.791 L75.61,43.791 z M78.791,40.61 L81.973,40.61 L81.973,43.791 L78.791,43.791 z M88.337,40.61 L91.519,40.61 L91.519,43.791 L88.337,43.791 z M91.519,40.61 L94.701,40.61 L94.701,43.791 L91.519,43.791 z M94.701,40.61 L97.882,40.61 L97.882,43.791 L94.701,43.791 z M101.064,40.61 L104.247,40.61 L104.247,43.791 L101.064,43.791 z M104.247,40.61 L107.428,40.61 L107.428,43.791 L104.247,43.791 z M107.428,40.61 L110.61,40.61 L110.61,43.791 L107.428,43.791 z M11.973,43.791 L15.156,43.791 L15.156,46.973 L11.973,46.973 z M15.156,43.791 L18.337,43.791 L18.337,46.973 L15.156,46.973 z M24.7,43.791 L27.882,43.791 L27.882,46.973 L24.7,46.973 z M27.882,43.791 L31.064,43.791 L31.064,46.973 L27.882,46.973 z M31.064,43.791 L34.246,43.791 L34.246,46.973 L31.064,46.973 z M43.791,43.791 L46.973,43.791 L46.973,46.973 L43.791,46.973 z M46.973,43.791 L50.156,43.791 L50.156,46.973 L46.973,46.973 z M56.519,43.791 L59.701,43.791 L59.701,46.973 L56.519,46.973 z M66.064,43.791 L69.247,43.791 L69.247,46.973 L66.064,46.973 z M69.247,43.791 L72.428,43.791 L72.428,46.973 L69.247,46.973 z M72.428,43.791 L75.61,43.791 L75.61,46.973 L72.428,46.973 z M78.791,43.791 L81.973,43.791 L81.973,46.973 L78.791,46.973 z M88.337,43.791 L91.519,43.791 L91.519,46.973 L88.337,46.973 z M91.519,43.791 L94.701,43.791 L94.701,46.973 L91.519,46.973 z M94.701,43.791 L97.882,43.791 L97.882,46.973 L94.701,46.973 z M97.882,43.791 L101.064,43.791 L101.064,46.973 L97.882,46.973 z M107.428,43.791 L110.61,43.791 L110.61,46.973 L107.428,46.973 z M8.791,46.973 L11.973,46.973 L11.973,50.156 L8.791,50.156 z M15.156,46.973 L18.337,46.973 L18.337,50.156 L15.156,50.156 z M21.519,46.973 L24.7,46.973 L24.7,50.156 L21.519,50.156 z M31.064,46.973 L34.246,46.973 L34.246,50.156 L31.064,50.156 z M34.246,46.973 L37.428,46.973 L37.428,50.156 L34.246,50.156 z M37.428,46.973 L40.61,46.973 L40.61,50.156 L37.428,50.156 z M40.61,46.973 L43.791,46.973 L43.791,50.156 L40.61,50.156 z M50.156,46.973 L53.337,46.973 L53.337,50.156 L50.156,50.156 z M56.519,46.973 L59.701,46.973 L59.701,50.156 L56.519,50.156 z M62.882,46.973 L66.064,46.973 L66.064,50.156 L62.882,50.156 z M72.428,46.973 L75.61,46.973 L75.61,50.156 L72.428,50.156 z M78.791,46.973 L81.973,46.973 L81.973,50.156 L78.791,50.156 z M85.156,46.973 L88.337,46.973 L88.337,50.156 L85.156,50.156 z M91.519,46.973 L94.701,46.973 L94.701,50.156 L91.519,50.156 z M94.701,46.973 L97.882,46.973 L97.882,50.156 L94.701,50.156 z M97.882,46.973 L101.064,46.973 L101.064,50.156 L97.882,50.156 z M101.064,46.973 L104.247,46.973 L104.247,50.156 L101.064,50.156 z M104.247,46.973 L107.428,46.973 L107.428,50.156 L104.247,50.156 z M8.791,50.156 L11.973,50.156 L11.973,53.337 L8.791,53.337 z M15.156,50.156 L18.337,50.156 L18.337,53.337 L15.156,53.337 z M18.337,50.156 L21.519,50.156 L21.519,53.337 L18.337,53.337 z M24.7,50.156 L27.882,50.156 L27.882,53.337 L24.7,53.337 z M31.064,50.156 L34.246,50.156 L34.246,53.337 L31.064,53.337 z M34.246,50.156 L37.428,50.156 L37.428,53.337 L34.246,53.337 z M40.61,50.156 L43.791,50.156 L43.791,53.337 L40.61,53.337 z M43.791,50.156 L46.973,50.156 L46.973,53.337 L43.791,53.337 z M46.973,50.156 L50.156,50.156 L50.156,53.337 L46.973,53.337 z M56.519,50.156 L59.701,50.156 L59.701,53.337 L56.519,53.337 z M81.973,50.156 L85.156,50.156 L85.156,53.337 L81.973,53.337 z M91.519,50.156 L94.701,50.156 L94.701,53.337 L91.519,53.337 z M97.882,50.156 L101.064,50.156 L101.064,53.337 L97.882,53.337 z M15.156,53.337 L18.337,53.337 L18.337,56.519 L15.156,56.519 z M18.337,53.337 L21.519,53.337 L21.519,56.519 L18.337,56.519 z M21.519,53.337 L24.7,53.337 L24.7,56.519 L21.519,56.519 z M27.882,53.337 L31.064,53.337 L31.064,56.519 L27.882,56.519 z M34.246,53.337 L37.428,53.337 L37.428,56.519 L34.246,56.519 z M40.61,53.337 L43.791,53.337 L43.791,56.519 L40.61,56.519 z M43.791,53.337 L46.973,53.337 L46.973,56.519 L43.791,56.519 z M50.156,53.337 L53.337,53.337 L53.337,56.519 L50.156,56.519 z M53.337,53.337 L56.519,53.337 L56.519,56.519 L53.337,56.519 z M56.519,53.337 L59.701,53.337 L59.701,56.519 L56.519,56.519 z M66.064,53.337 L69.247,53.337 L69.247,56.519 L66.064,56.519 z M81.973,53.337 L85.156,53.337 L85.156,56.519 L81.973,56.519 z M85.156,53.337 L88.337,53.337 L88.337,56.519 L85.156,56.519 z M88.337,53.337 L91.519,53.337 L91.519,56.519 L88.337,56.519 z M91.519,53.337 L94.701,53.337 L94.701,56.519 L91.519,56.519 z M101.064,53.337 L104.247,53.337 L104.247,56.519 L101.064,56.519 z M107.428,53.337 L110.61,53.337 L110.61,56.519 L107.428,56.519 z M5.61,56.519 L8.791,56.519 L8.791,59.701 L5.61,59.701 z M8.791,56.519 L11.973,56.519 L11.973,59.701 L8.791,59.701 z M11.973,56.519 L15.156,56.519 L15.156,59.701 L11.973,59.701 z M18.337,56.519 L21.519,56.519 L21.519,59.701 L18.337,59.701 z M24.7,56.519 L27.882,56.519 L27.882,59.701 L24.7,59.701 z M31.064,56.519 L34.246,56.519 L34.246,59.701 L31.064,59.701 z M34.246,56.519 L37.428,56.519 L37.428,59.701 L34.246,59.701 z M40.61,56.519 L43.791,56.519 L43.791,59.701 L40.61,59.701 z M66.064,56.519 L69.247,56.519 L69.247,59.701 L66.064,59.701 z M69.247,56.519 L72.428,56.519 L72.428,59.701 L69.247,59.701 z M78.791,56.519 L81.973,56.519 L81.973,59.701 L78.791,59.701 z M85.156,56.519 L88.337,56.519 L88.337,59.701 L85.156,59.701 z M88.337,56.519 L91.519,56.519 L91.519,59.701 L88.337,59.701 z M91.519,56.519 L94.701,56.519 L94.701,59.701 L91.519,59.701 z M94.701,56.519 L97.882,56.519 L97.882,59.701 L94.701,59.701 z M97.882,56.519 L101.064,56.519 L101.064,59.701 L97.882,59.701 z M104.247,56.519 L107.428,56.519 L107.428,59.701 L104.247,59.701 z M5.61,59.701 L8.791,59.701 L8.791,62.882 L5.61,62.882 z M8.791,59.701 L11.973,59.701 L11.973,62.882 L8.791,62.882 z M18.337,59.701 L21.519,59.701 L21.519,62.882 L18.337,62.882 z M31.064,59.701 L34.246,59.701 L34.246,62.882 L31.064,62.882 z M34.246,59.701 L37.428,59.701 L37.428,62.882 L34.246,62.882 z M37.428,59.701 L40.61,59.701 L40.61,62.882 L37.428,62.882 z M43.791,59.701 L46.973,59.701 L46.973,62.882 L43.791,62.882 z M46.973,59.701 L50.156,59.701 L50.156,62.882 L46.973,62.882 z M53.337,59.701 L56.519,59.701 L56.519,62.882 L53.337,62.882 z M56.519,59.701 L59.701,59.701 L59.701,62.882 L56.519,62.882 z M66.064,59.701 L69.247,59.701 L69.247,62.882 L66.064,62.882 z M69.247,59.701 L72.428,59.701 L72.428,62.882 L69.247,62.882 z M72.428,59.701 L75.61,59.701 L75.61,62.882 L72.428,62.882 z M75.61,59.701 L78.791,59.701 L78.791,62.882 L75.61,62.882 z M81.973,59.701 L85.156,59.701 L85.156,62.882 L81.973,62.882 z M88.337,59.701 L91.519,59.701 L91.519,62.882 L88.337,62.882 z M91.519,59.701 L94.701,59.701 L94.701,62.882 L91.519,62.882 z M94.701,59.701 L97.882,59.701 L97.882,62.882 L94.701,62.882 z M97.882,59.701 L101.064,59.701 L101.064,62.882 L97.882,62.882 z M107.428,59.701 L110.61,59.701 L110.61,62.882 L107.428,62.882 z M5.61,62.882 L8.791,62.882 L8.791,66.064 L5.61,66.064 z M15.156,62.882 L18.337,62.882 L18.337,66.064 L15.156,66.064 z M21.519,62.882 L24.7,62.882 L24.7,66.064 L21.519,66.064 z M24.7,62.882 L27.882,62.882 L27.882,66.064 L24.7,66.064 z M27.882,62.882 L31.064,62.882 L31.064,66.064 L27.882,66.064 z M31.064,62.882 L34.246,62.882 L34.246,66.064 L31.064,66.064 z M37.428,62.882 L40.61,62.882 L40.61,66.064 L37.428,66.064 z M40.61,62.882 L43.791,62.882 L43.791,66.064 L40.61,66.064 z M46.973,62.882 L50.156,62.882 L50.156,66.064 L46.973,66.064 z M50.156,62.882 L53.337,62.882 L53.337,66.064 L50.156,66.064 z M56.519,62.882 L59.701,62.882 L59.701,66.064 L56.519,66.064 z M59.701,62.882 L62.882,62.882 L62.882,66.064 L59.701,66.064 z M72.428,62.882 L75.61,62.882 L75.61,66.064 L72.428,66.064 z M78.791,62.882 L81.973,62.882 L81.973,66.064 L78.791,66.064 z M85.156,62.882 L88.337,62.882 L88.337,66.064 L85.156,66.064 z M88.337,62.882 L91.519,62.882 L91.519,66.064 L88.337,66.064 z M91.519,62.882 L94.701,62.882 L94.701,66.064 L91.519,66.064 z M97.882,62.882 L101.064,62.882 L101.064,66.064 L97.882,66.064 z M101.064,62.882 L104.247,62.882 L104.247,66.064 L101.064,66.064 z M107.428,62.882 L110.61,62.882 L110.61,66.064 L107.428,66.064 z M8.791,66.064 L11.973,66.064 L11.973,69.247 L8.791,69.247 z M18.337,66.064 L21.519,66.064 L21.519,69.247 L18.337,69.247 z M21.519,66.064 L24.7,66.064 L24.7,69.247 L21.519,69.247 z M27.882,66.064 L31.064,66.064 L31.064,69.247 L27.882,69.247 z M34.246,66.064 L37.428,66.064 L37.428,69.247 L34.246,69.247 z M40.61,66.064 L43.791,66.064 L43.791,69.247 L40.61,69.247 z M43.791,66.064 L46.973,66.064 L46.973,69.247 L43.791,69.247 z M50.156,66.064 L53.337,66.064 L53.337,69.247 L50.156,69.247 z M53.337,66.064 L56.519,66.064 L56.519,69.247 L53.337,69.247 z M66.064,66.064 L69.247,66.064 L69.247,69.247 L66.064,69.247 z M69.247,66.064 L72.428,66.064 L72.428,69.247 L69.247,69.247 z M75.61,66.064 L78.791,66.064 L78.791,69.247 L75.61,69.247 z M78.791,66.064 L81.973,66.064 L81.973,69.247 L78.791,69.247 z M81.973,66.064 L85.156,66.064 L85.156,69.247 L81.973,69.247 z M88.337,66.064 L91.519,66.064 L91.519,69.247 L88.337,69.247 z M94.701,66.064 L97.882,66.064 L97.882,69.247 L94.701,69.247 z M97.882,66.064 L101.064,66.064 L101.064,69.247 L97.882,69.247 z M101.064,66.064 L104.247,66.064 L104.247,69.247 L101.064,69.247 z M104.247,66.064 L107.428,66.064 L107.428,69.247 L104.247,69.247 z M5.61,69.247 L8.791,69.247 L8.791,72.428 L5.61,72.428 z M11.973,69.247 L15.156,69.247 L15.156,72.428 L11.973,72.428 z M15.156,69.247 L18.337,69.247 L18.337,72.428 L15.156,72.428 z M24.7,69.247 L27.882,69.247 L27.882,72.428 L24.7,72.428 z M27.882,69.247 L31.064,69.247 L31.064,72.428 L27.882,72.428 z M31.064,69.247 L34.246,69.247 L34.246,72.428 L31.064,72.428 z M34.246,69.247 L37.428,69.247 L37.428,72.428 L34.246,72.428 z M40.61,69.247 L43.791,69.247 L43.791,72.428 L40.61,72.428 z M43.791,69.247 L46.973,69.247 L46.973,72.428 L43.791,72.428 z M46.973,69.247 L50.156,69.247 L50.156,72.428 L46.973,72.428 z M56.519,69.247 L59.701,69.247 L59.701,72.428 L56.519,72.428 z M69.247,69.247 L72.428,69.247 L72.428,72.428 L69.247,72.428 z M81.973,69.247 L85.156,69.247 L85.156,72.428 L81.973,72.428 z M85.156,69.247 L88.337,69.247 L88.337,72.428 L85.156,72.428 z M91.519,69.247 L94.701,69.247 L94.701,72.428 L91.519,72.428 z M97.882,69.247 L101.064,69.247 L101.064,72.428 L97.882,72.428 z M104.247,69.247 L107.428,69.247 L107.428,72.428 L104.247,72.428 z M5.61,72.428 L8.791,72.428 L8.791,75.61 L5.61,75.61 z M15.156,72.428 L18.337,72.428 L18.337,75.61 L15.156,75.61 z M21.519,72.428 L24.7,72.428 L24.7,75.61 L21.519,75.61 z M37.428,72.428 L40.61,72.428 L40.61,75.61 L37.428,75.61 z M40.61,72.428 L43.791,72.428 L43.791,75.61 L40.61,75.61 z M43.791,72.428 L46.973,72.428 L46.973,75.61 L43.791,75.61 z M46.973,72.428 L50.156,72.428 L50.156,75.61 L46.973,75.61 z M59.701,72.428 L62.882,72.428 L62.882,75.61 L59.701,75.61 z M66.064,72.428 L69.247,72.428 L69.247,75.61 L66.064,75.61 z M69.247,72.428 L72.428,72.428 L72.428,75.61 L69.247,75.61 z M72.428,72.428 L75.61,72.428 L75.61,75.61 L72.428,75.61 z M85.156,72.428 L88.337,72.428 L88.337,75.61 L85.156,75.61 z M88.337,72.428 L91.519,72.428 L91.519,75.61 L88.337,75.61 z M94.701,72.428 L97.882,72.428 L97.882,75.61 L94.701,75.61 z M97.882,72.428 L101.064,72.428 L101.064,75.61 L97.882,75.61 z M101.064,72.428 L104.247,72.428 L104.247,75.61 L101.064,75.61 z M104.247,72.428 L107.428,72.428 L107.428,75.61 L104.247,75.61 z M5.61,75.61 L8.791,75.61 L8.791,78.791 L5.61,78.791 z M21.519,75.61 L24.7,75.61 L24.7,78.791 L21.519,78.791 z M24.7,75.61 L27.882,75.61 L27.882,78.791 L24.7,78.791 z M27.882,75.61 L31.064,75.61 L31.064,78.791 L27.882,78.791 z M37.428,75.61 L40.61,75.61 L40.61,78.791 L37.428,78.791 z M46.973,75.61 L50.156,75.61 L50.156,78.791 L46.973,78.791 z M50.156,75.61 L53.337,75.61 L53.337,78.791 L50.156,78.791 z M53.337,75.61 L56.519,75.61 L56.519,78.791 L53.337,78.791 z M59.701,75.61 L62.882,75.61 L62.882,78.791 L59.701,78.791 z M66.064,75.61 L69.247,75.61 L69.247,78.791 L66.064,78.791 z M75.61,75.61 L78.791,75.61 L78.791,78.791 L75.61,78.791 z M81.973,75.61 L85.156,75.61 L85.156,78.791 L81.973,78.791 z M88.337,75.61 L91.519,75.61 L91.519,78.791 L88.337,78.791 z M94.701,75.61 L97.882,75.61 L97.882,78.791 L94.701,78.791 z M104.247,75.61 L107.428,75.61 L107.428,78.791 L104.247,78.791 z M107.428,75.61 L110.61,75.61 L110.61,78.791 L107.428,78.791 z M5.61,78.791 L8.791,78.791 L8.791,81.973 L5.61,81.973 z M15.156,78.791 L18.337,78.791 L18.337,81.973 L15.156,81.973 z M18.337,78.791 L21.519,78.791 L21.519,81.973 L18.337,81.973 z M21.519,78.791 L24.7,78.791 L24.7,81.973 L21.519,81.973 z M31.064,78.791 L34.246,78.791 L34.246,81.973 L31.064,81.973 z M37.428,78.791 L40.61,78.791 L40.61,81.973 L37.428,81.973 z M46.973,78.791 L50.156,78.791 L50.156,81.973 L46.973,81.973 z M53.337,78.791 L56.519,78.791 L56.519,81.973 L53.337,81.973 z M56.519,78.791 L59.701,78.791 L59.701,81.973 L56.519,81.973 z M69.247,78.791 L72.428,78.791 L72.428,81.973 L69.247,81.973 z M91.519,78.791 L94.701,78.791 L94.701,81.973 L91.519,81.973 z M94.701,78.791 L97.882,78.791 L97.882,81.973 L94.701,81.973 z M101.064,78.791 L104.247,78.791 L104.247,81.973 L101.064,81.973 z M5.61,81.973 L8.791,81.973 L8.791,85.156 L5.61,85.156 z M8.791,81.973 L11.973,81.973 L11.973,85.156 L8.791,85.156 z M11.973,81.973 L15.156,81.973 L15.156,85.156 L11.973,85.156 z M15.156,81.973 L18.337,81.973 L18.337,85.156 L15.156,85.156 z M18.337,81.973 L21.519,81.973 L21.519,85.156 L18.337,85.156 z M21.519,81.973 L24.7,81.973 L24.7,85.156 L21.519,85.156 z M24.7,81.973 L27.882,81.973 L27.882,85.156 L24.7,85.156 z M27.882,81.973 L31.064,81.973 L31.064,85.156 L27.882,85.156 z M31.064,81.973 L34.246,81.973 L34.246,85.156 L31.064,85.156 z M34.246,81.973 L37.428,81.973 L37.428,85.156 L34.246,85.156 z M37.428,81.973 L40.61,81.973 L40.61,85.156 L37.428,85.156 z M40.61,81.973 L43.791,81.973 L43.791,85.156 L40.61,85.156 z M43.791,81.973 L46.973,81.973 L46.973,85.156 L43.791,85.156 z M50.156,81.973 L53.337,81.973 L53.337,85.156 L50.156,85.156 z M59.701,81.973 L62.882,81.973 L62.882,85.156 L59.701,85.156 z M62.882,81.973 L66.064,81.973 L66.064,85.156 L62.882,85.156 z M66.064,81.973 L69.247,81.973 L69.247,85.156 L66.064,85.156 z M81.973,81.973 L85.156,81.973 L85.156,85.156 L81.973,85.156 z M85.156,81.973 L88.337,81.973 L88.337,85.156 L85.156,85.156 z M88.337,81.973 L91.519,81.973 L91.519,85.156 L88.337,85.156 z M91.519,81.973 L94.701,81.973 L94.701,85.156 L91.519,85.156 z M94.701,81.973 L97.882,81.973 L97.882,85.156 L94.701,85.156 z M104.247,81.973 L107.428,81.973 L107.428,85.156 L104.247,85.156 z M107.428,81.973 L110.61,81.973 L110.61,85.156 L107.428,85.156 z M31.064,85.156 L34.246,85.156 L34.246,88.337 L31.064,88.337 z M50.156,85.156 L53.337,85.156 L53.337,88.337 L50.156,88.337 z M53.337,85.156 L56.519,85.156 L56.519,88.337 L53.337,88.337 z M56.519,85.156 L59.701,85.156 L59.701,88.337 L56.519,88.337 z M66.064,85.156 L69.247,85.156 L69.247,88.337 L66.064,88.337 z M75.61,85.156 L78.791,85.156 L78.791,88.337 L75.61,88.337 z M78.791,85.156 L81.973,85.156 L81.973,88.337 L78.791,88.337 z M81.973,85.156 L85.156,85.156 L85.156,88.337 L81.973,88.337 z M94.701,85.156 L97.882,85.156 L97.882,88.337 L94.701,88.337 z M97.882,85.156 L101.064,85.156 L101.064,88.337 L97.882,88.337 z M5.61,88.337 L8.791,88.337 L8.791,91.519 L5.61,91.519 z M8.791,88.337 L11.973,88.337 L11.973,91.519 L8.791,91.519 z M11.973,88.337 L15.156,88.337 L15.156,91.519 L11.973,91.519 z M15.156,88.337 L18.337,88.337 L18.337,91.519 L15.156,91.519 z M18.337,88.337 L21.519,88.337 L21.519,91.519 L18.337,91.519 z M21.519,88.337 L24.7,88.337 L24.7,91.519 L21.519,91.519 z M24.7,88.337 L27.882,88.337 L27.882,91.519 L24.7,91.519 z M31.064,88.337 L34.246,88.337 L34.246,91.519 L31.064,91.519 z M40.61,88.337 L43.791,88.337 L43.791,91.519 L40.61,91.519 z M50.156,88.337 L53.337,88.337 L53.337,91.519 L50.156,91.519 z M53.337,88.337 L56.519,88.337 L56.519,91.519 L53.337,91.519 z M62.882,88.337 L66.064,88.337 L66.064,91.519 L62.882,91.519 z M66.064,88.337 L69.247,88.337 L69.247,91.519 L66.064,91.519 z M72.428,88.337 L75.61,88.337 L75.61,91.519 L72.428,91.519 z M75.61,88.337 L78.791,88.337 L78.791,91.519 L75.61,91.519 z M78.791,88.337 L81.973,88.337 L81.973,91.519 L78.791,91.519 z M81.973,88.337 L85.156,88.337 L85.156,91.519 L81.973,91.519 z M88.337,88.337 L91.519,88.337 L91.519,91.519 L88.337,91.519 z M94.701,88.337 L97.882,88.337 L97.882,91.519 L94.701,91.519 z M97.882,88.337 L101.064,88.337 L101.064,91.519 L97.882,91.519 z M5.61,91.519 L8.791,91.519 L8.791,94.701 L5.61,94.701 z M24.7,91.519 L27.882,91.519 L27.882,94.701 L24.7,94.701 z M34.246,91.519 L37.428,91.519 L37.428,94.701 L34.246,94.701 z M37.428,91.519 L40.61,91.519 L40.61,94.701 L37.428,94.701 z M53.337,91.519 L56.519,91.519 L56.519,94.701 L53.337,94.701 z M56.519,91.519 L59.701,91.519 L59.701,94.701 L56.519,94.701 z M59.701,91.519 L62.882,91.519 L62.882,94.701 L59.701,94.701 z M69.247,91.519 L72.428,91.519 L72.428,94.701 L69.247,94.701 z M78.791,91.519 L81.973,91.519 L81.973,94.701 L78.791,94.701 z M81.973,91.519 L85.156,91.519 L85.156,94.701 L81.973,94.701 z M94.701,91.519 L97.882,91.519 L97.882,94.701 L94.701,94.701 z M97.882,91.519 L101.064,91.519 L101.064,94.701 L97.882,94.701 z M101.064,91.519 L104.247,91.519 L104.247,94.701 L101.064,94.701 z M104.247,91.519 L107.428,91.519 L107.428,94.701 L104.247,94.701 z M5.61,94.701 L8.791,94.701 L8.791,97.882 L5.61,97.882 z M11.973,94.701 L15.156,94.701 L15.156,97.882 L11.973,97.882 z M15.156,94.701 L18.337,94.701 L18.337,97.882 L15.156,97.882 z M18.337,94.701 L21.519,94.701 L21.519,97.882 L18.337,97.882 z M24.7,94.701 L27.882,94.701 L27.882,97.882 L24.7,97.882 z M31.064,94.701 L34.246,94.701 L34.246,97.882 L31.064,97.882 z M40.61,94.701 L43.791,94.701 L43.791,97.882 L40.61,97.882 z M43.791,94.701 L46.973,94.701 L46.973,97.882 L43.791,97.882 z M46.973,94.701 L50.156,94.701 L50.156,97.882 L46.973,97.882 z M56.519,94.701 L59.701,94.701 L59.701,97.882 L56.519,97.882 z M59.701,94.701 L62.882,94.701 L62.882,97.882 L59.701,97.882 z M62.882,94.701 L66.064,94.701 L66.064,97.882 L62.882,97.882 z M66.064,94.701 L69.247,94.701 L69.247,97.882 L66.064,97.882 z M69.247,94.701 L72.428,94.701 L72.428,97.882 L69.247,97.882 z M72.428,94.701 L75.61,94.701 L75.61,97.882 L72.428,97.882 z M78.791,94.701 L81.973,94.701 L81.973,97.882 L78.791,97.882 z M81.973,94.701 L85.156,94.701 L85.156,97.882 L81.973,97.882 z M85.156,94.701 L88.337,94.701 L88.337,97.882 L85.156,97.882 z M88.337,94.701 L91.519,94.701 L91.519,97.882 L88.337,97.882 z M91.519,94.701 L94.701,94.701 L94.701,97.882 L91.519,97.882 z M94.701,94.701 L97.882,94.701 L97.882,97.882 L94.701,97.882 z M97.882,94.701 L101.064,94.701 L101.064,97.882 L97.882,97.882 z M104.247,94.701 L107.428,94.701 L107.428,97.882 L104.247,97.882 z M5.61,97.882 L8.791,97.882 L8.791,101.064 L5.61,101.064 z M11.973,97.882 L15.156,97.882 L15.156,101.064 L11.973,101.064 z M15.156,97.882 L18.337,97.882 L18.337,101.064 L15.156,101.064 z M18.337,97.882 L21.519,97.882 L21.519,101.064 L18.337,101.064 z M24.7,97.882 L27.882,97.882 L27.882,101.064 L24.7,101.064 z M31.064,97.882 L34.246,97.882 L34.246,101.064 L31.064,101.064 z M37.428,97.882 L40.61,97.882 L40.61,101.064 L37.428,101.064 z M46.973,97.882 L50.156,97.882 L50.156,101.064 L46.973,101.064 z M50.156,97.882 L53.337,97.882 L53.337,101.064 L50.156,101.064 z M53.337,97.882 L56.519,97.882 L56.519,101.064 L53.337,101.064 z M56.519,97.882 L59.701,97.882 L59.701,101.064 L56.519,101.064 z M59.701,97.882 L62.882,97.882 L62.882,101.064 L59.701,101.064 z M62.882,97.882 L66.064,97.882 L66.064,101.064 L62.882,101.064 z M66.064,97.882 L69.247,97.882 L69.247,101.064 L66.064,101.064 z M69.247,97.882 L72.428,97.882 L72.428,101.064 L69.247,101.064 z M72.428,97.882 L75.61,97.882 L75.61,101.064 L72.428,101.064 z M85.156,97.882 L88.337,97.882 L88.337,101.064 L85.156,101.064 z M91.519,97.882 L94.701,97.882 L94.701,101.064 L91.519,101.064 z M104.247,97.882 L107.428,97.882 L107.428,101.064 L104.247,101.064 z M5.61,101.064 L8.791,101.064 L8.791,104.247 L5.61,104.247 z M11.973,101.064 L15.156,101.064 L15.156,104.247 L11.973,104.247 z M15.156,101.064 L18.337,101.064 L18.337,104.247 L15.156,104.247 z M18.337,101.064 L21.519,101.064 L21.519,104.247 L18.337,104.247 z M24.7,101.064 L27.882,101.064 L27.882,104.247 L24.7,104.247 z M34.246,101.064 L37.428,101.064 L37.428,104.247 L34.246,104.247 z M40.61,101.064 L43.791,101.064 L43.791,104.247 L40.61,104.247 z M43.791,101.064 L46.973,101.064 L46.973,104.247 L43.791,104.247 z M46.973,101.064 L50.156,101.064 L50.156,104.247 L46.973,104.247 z M50.156,101.064 L53.337,101.064 L53.337,104.247 L50.156,104.247 z M53.337,101.064 L56.519,101.064 L56.519,104.247 L53.337,104.247 z M59.701,101.064 L62.882,101.064 L62.882,104.247 L59.701,104.247 z M69.247,101.064 L72.428,101.064 L72.428,104.247 L69.247,104.247 z M75.61,101.064 L78.791,101.064 L78.791,104.247 L75.61,104.247 z M78.791,101.064 L81.973,101.064 L81.973,104.247 L78.791,104.247 z M81.973,101.064 L85.156,101.064 L85.156,104.247 L81.973,104.247 z M94.701,101.064 L97.882,101.064 L97.882,104.247 L94.701,104.247 z M104.247,101.064 L107.428,101.064 L107.428,104.247 L104.247,104.247 z M107.428,101.064 L110.61,101.064 L110.61,104.247 L107.428,104.247 z M5.61,104.247 L8.791,104.247 L8.791,107.428 L5.61,107.428 z M24.7,104.247 L27.882,104.247 L27.882,107.428 L24.7,107.428 z M34.246,104.247 L37.428,104.247 L37.428,107.428 L34.246,107.428 z M37.428,104.247 L40.61,104.247 L40.61,107.428 L37.428,107.428 z M40.61,104.247 L43.791,104.247 L43.791,107.428 L40.61,107.428 z M43.791,104.247 L46.973,104.247 L46.973,107.428 L43.791,107.428 z M53.337,104.247 L56.519,104.247 L56.519,107.428 L53.337,107.428 z M62.882,104.247 L66.064,104.247 L66.064,107.428 L62.882,107.428 z M66.064,104.247 L69.247,104.247 L69.247,107.428 L66.064,107.428 z M69.247,104.247 L72.428,104.247 L72.428,107.428 L69.247,107.428 z M75.61,104.247 L78.791,104.247 L78.791,107.428 L75.61,107.428 z M78.791,104.247 L81.973,104.247 L81.973,107.428 L78.791,107.428 z M85.156,104.247 L88.337,104.247 L88.337,107.428 L85.156,107.428 z M88.337,104.247 L91.519,104.247 L91.519,107.428 L88.337,107.428 z M101.064,104.247 L104.247,104.247 L104.247,107.428 L101.064,107.428 z M104.247,104.247 L107.428,104.247 L107.428,107.428 L104.247,107.428 z M107.428,104.247 L110.61,104.247 L110.61,107.428 L107.428,107.428 z M5.61,107.428 L8.791,107.428 L8.791,110.61 L5.61,110.61 z M8.791,107.428 L11.973,107.428 L11.973,110.61 L8.791,110.61 z M11.973,107.428 L15.156,107.428 L15.156,110.61 L11.973,110.61 z M15.156,107.428 L18.337,107.428 L18.337,110.61 L15.156,110.61 z M18.337,107.428 L21.519,107.428 L21.519,110.61 L18.337,110.61 z M21.519,107.428 L24.7,107.428 L24.7,110.61 L21.519,110.61 z M24.7,107.428 L27.882,107.428 L27.882,110.61 L24.7,110.61 z M34.246,107.428 L37.428,107.428 L37.428,110.61 L34.246,110.61 z M43.791,107.428 L46.973,107.428 L46.973,110.61 L43.791,110.61 z M50.156,107.428 L53.337,107.428 L53.337,110.61 L50.156,110.61 z M56.519,107.428 L59.701,107.428 L59.701,110.61 L56.519,110.61 z M62.882,107.428 L66.064,107.428 L66.064,110.61 L62.882,110.61 z M78.791,107.428 L81.973,107.428 L81.973,110.61 L78.791,110.61 z M81.973,107.428 L85.156,107.428 L85.156,110.61 L81.973,110.61 z M94.701,107.428 L97.882,107.428 L97.882,110.61 L94.701,110.61 z M101.064,107.428 L104.247,107.428 L104.247,110.61 L101.064,110.61 z" fill="#FFFFFF" id="qr-path"/>
  </g>
</svg>
